<svg aria-hidden="true" style="width:0;height:0;position:absolute;overflow:hidden" xmlns="http://www.w3.org/2000/svg"><defs><symbol id="icon-call-us" viewBox="0 0 32 32"><path d="M30.604 5.068 26.345.812C25.846.31 25.156 0 24.393 0s-1.453.31-1.952.812l-4.589 4.58c-.502.5-.812 1.192-.812 1.956s.31 1.456.812 1.956l3.584 3.587a16.3 16.3 0 0 1-3.456 5.09 16.294 16.294 0 0 1-4.984 3.424l-.104.041-3.583-3.588c-.499-.502-1.189-.812-1.952-.812s-1.453.31-1.952.812l-4.593 4.58C.31 22.938 0 23.63 0 24.394s.31 1.456.812 1.956l4.256 4.255a4.793 4.793 0 0 0 3.369 1.396c.26 0 .512-.02.768-.064 5.295-.873 10.551-3.692 14.796-7.932 4.24-4.247 7.056-9.503 7.936-14.801a4.752 4.752 0 0 0-1.332-4.135zM29.1 8.727c-.78 4.716-3.316 9.418-7.136 13.238S13.445 28.321 8.728 29.1a1.874 1.874 0 0 1-1.631-.528l-4.18-4.179 4.432-4.436 4.828 4.836.864-.32c5.316-1.993 9.436-6.113 11.385-11.297l.044-.133.32-.864-4.832-4.829 4.432-4.433 4.18 4.179c.432.432.631 1.04.531 1.632z"/></symbol><symbol id="icon-btn" viewBox="0 0 31 32"><path d="M21.314 13.667a.212.212 0 0 0-.175-.243h-.001l-1.897-.3a.213.213 0 1 0-.067.421h.001l1.686.267-.267 1.686a.213.213 0 0 0 .421.067v-.001l.3-1.897zm-10.095 7.412 10.01-7.273-.251-.345-10.01 7.273.251.345zm17.082-4.277c.011-.17.046-.329.104-.478l-.004.011c.058-.145.126-.257.203-.337l.207.137a1.215 1.215 0 0 0-.273.699v.004c-.013.192.008.332.061.42a.284.284 0 0 0 .233.142.215.215 0 0 0 .177-.061.417.417 0 0 0 .108-.178c.028-.075.053-.159.074-.253s.046-.187.072-.28c.026-.091.061-.173.105-.247a.535.535 0 0 1 .175-.176l.002-.001a.502.502 0 0 1 .281-.051c.11.007.206.044.289.111s.145.161.186.282c.043.123.059.271.048.442-.01.142-.038.274-.083.398l.003-.01a1.039 1.039 0 0 1-.155.313l-.211-.133a.875.875 0 0 0 .149-.279c.035-.1.055-.202.062-.304.012-.181-.011-.317-.069-.409a.282.282 0 0 0-.229-.142.238.238 0 0 0-.185.057.523.523 0 0 0-.114.177l-.001.004a2.234 2.234 0 0 0-.074.253 3.622 3.622 0 0 1-.076.276 1.077 1.077 0 0 1-.108.256l.003-.005a.431.431 0 0 1-.438.232.494.494 0 0 1-.3-.12.634.634 0 0 1-.181-.297 1.277 1.277 0 0 1-.039-.453zm1.666 2.648a.912.912 0 0 1-.195.395.657.657 0 0 1-.34.216l-.005.001a.997.997 0 0 1-.496-.009l-1.138-.276.064-.265 1.112.27c.206.05.375.036.505-.044.132-.076.22-.207.266-.394.034-.139.035-.268.003-.387s-.097-.221-.184-.297l-.001-.001a.83.83 0 0 0-.361-.174l-1.03-.25.064-.265 2.769.671-.064.265-1.347-.326.113-.028a.723.723 0 0 1 .26.379c.049.157.05.33.004.519zm-2.766 1.712c.083-.176.196-.317.341-.421a.99.99 0 0 1 .481-.176h.004c.179-.015.36.02.541.104.183.086.325.201.427.348s.159.307.172.483c.014.176-.021.353-.105.532a1.064 1.064 0 0 1-.343.425.92.92 0 0 1-.482.177 1.045 1.045 0 0 1-.54-.104 1.055 1.055 0 0 1-.427-.348.948.948 0 0 1-.176-.481v-.003a1.07 1.07 0 0 1 .106-.535zm.22.102a.761.761 0 0 0-.077.392c.013.13.059.249.138.357.081.111.192.2.333.266a.825.825 0 0 0 .418.085.68.68 0 0 0 .361-.126l-.002.001c.108-.074.192-.176.253-.305a.732.732 0 0 0-.062-.751l.001.002a.822.822 0 0 0-.333-.266c-.141-.066-.281-.095-.418-.085s-.262.056-.367.128l.002-.002a.759.759 0 0 0-.246.299l-.002.005zm-1.501 2.062a.954.954 0 0 1 .375-.311.89.89 0 0 1 .486-.065l-.005-.001c.172.025.348.102.525.232s.303.273.377.428c.076.157.104.315.084.476s-.081.312-.186.454a1.003 1.003 0 0 1-.795.424c-.042 0-.084-.003-.125-.008l.005.001a1.061 1.061 0 0 1-.508-.21 1.068 1.068 0 0 1-.356-.423.93.93 0 0 1-.077-.509v.005c.019-.173.085-.337.199-.492zm.03-1.268 2.227 1.631-.154.211-.489-.358-.31-.26-.351-.209-1.084-.794.161-.22zm.176 1.395a.765.765 0 0 0-.15.366.738.738 0 0 0 .064.38c.058.125.15.233.276.326a.813.813 0 0 0 .484.168.732.732 0 0 0 .293-.061l-.005.002c.12-.051.223-.135.308-.251a.764.764 0 0 0 .153-.444.738.738 0 0 0-.069-.312l.002.004c-.057-.121-.149-.228-.275-.32s-.256-.148-.391-.168a.74.74 0 0 0-.387.055l.005-.002a.78.78 0 0 0-.305.254l-.002.002zm-1.366 3.959a.919.919 0 0 1-.531.201.657.657 0 0 1-.277-.061l.004.002a.976.976 0 0 1-.381-.317l-.717-.926.216-.167.7.905c.13.168.27.262.421.281.15.023.302-.024.454-.142a.78.78 0 0 0 .244-.3.59.59 0 0 0 .041-.351l.001.004a.831.831 0 0 0-.173-.361l-.649-.838.216-.167 1.234 1.594-.207.16-.338-.437.097.056a.722.722 0 0 1-.034.458.963.963 0 0 1-.321.408zm-3.208-.398c.174-.087.351-.126.529-.118.178.012.341.066.49.163.15.1.27.239.359.417.09.181.13.36.119.537a.96.96 0 0 1-.167.489l.002-.003a1.049 1.049 0 0 1-.412.352 1.06 1.06 0 0 1-.532.12.927.927 0 0 1-.491-.162l.003.002a1.038 1.038 0 0 1-.359-.417 1.05 1.05 0 0 1-.118-.538.964.964 0 0 1 .163-.489c.101-.148.239-.265.416-.354zm.109.216a.761.761 0 0 0-.304.259.69.69 0 0 0-.113.365v.001a.84.84 0 0 0 .096.416.826.826 0 0 0 .275.326c.1.072.224.118.357.126h.002c.131.009.26-.018.388-.082a.741.741 0 0 0 .418-.624v-.001a.829.829 0 0 0-.096-.416.845.845 0 0 0-.275-.326.729.729 0 0 0-.362-.127h-.002l-.035-.001a.746.746 0 0 0-.352.087l.004-.002zm-1.815.543 1.228 1.771-.253.063-1.126-1.646.116-.029-.234 1.987-.227.057-1.137-1.643.115-.029-.226 1.985-.242.061.25-2.141.25-.063 1.084 1.542-.078.02.231-1.871.25-.063zm-4.248.554c.166.005.323.033.47.084.147.053.262.117.344.191l-.129.211a1.21 1.21 0 0 0-.709-.249h-.002c-.192-.006-.331.019-.417.075a.286.286 0 0 0-.134.238.214.214 0 0 0 .068.175.424.424 0 0 0 .181.102c.076.025.161.047.255.066s.188.039.282.063c.092.023.175.055.251.096.076.043.137.1.183.171a.488.488 0 0 1 .06.279.5.5 0 0 1-.102.294l.001-.001a.599.599 0 0 1-.275.195 1.13 1.13 0 0 1-.44.063 1.451 1.451 0 0 1-.4-.069l.011.003a1.056 1.056 0 0 1-.318-.144l.126-.215a.863.863 0 0 0 .284.139c.101.031.203.049.306.052.182.006.317-.022.406-.084a.284.284 0 0 0 .134-.234.238.238 0 0 0-.064-.183.535.535 0 0 0-.181-.108l-.004-.001a2.033 2.033 0 0 0-.241-.063l-.015-.003a3.006 3.006 0 0 1-.302-.072l.024.006a1.114 1.114 0 0 1-.26-.099l.006.003a.445.445 0 0 1-.182-.161l-.001-.002a.446.446 0 0 1-.065-.267.494.494 0 0 1 .109-.304.638.638 0 0 1 .29-.191c.124-.042.275-.061.451-.055zm-2.577 1.754a.918.918 0 0 1-.402-.181.656.656 0 0 1-.227-.333l-.001-.005a.979.979 0 0 1-.007-.496l.237-1.147.267.055-.232 1.12c-.043.208-.023.376.061.503.08.129.215.213.403.252a.78.78 0 0 0 .386-.01.594.594 0 0 0 .291-.195.834.834 0 0 0 .162-.366l.215-1.038.267.055-.577 2.79-.267-.055.281-1.357.032.112a.727.727 0 0 1-.365.271l-.005.001a.955.955 0 0 1-.518.022zm-1.781-2.694c.179.076.324.184.434.325a.996.996 0 0 1 .11 1.022 1.034 1.034 0 0 1-.332.439.965.965 0 0 1-.472.19h-.005a1.056 1.056 0 0 1-.535-.084 1.054 1.054 0 0 1-.437-.327.924.924 0 0 1-.195-.47v-.004a1.045 1.045 0 0 1 .084-.544 1.05 1.05 0 0 1 .332-.439.954.954 0 0 1 .474-.194h.004a1.07 1.07 0 0 1 .539.086zm-.094.223a.771.771 0 0 0-.395-.063.71.71 0 0 0-.353.152l.001-.001a.846.846 0 0 0-.254.343.833.833 0 0 0-.07.421.675.675 0 0 0 .138.354c.078.105.183.186.315.241s.263.075.393.058a.702.702 0 0 0 .356-.148l-.001.001a.82.82 0 0 0 .253-.343c.061-.144.084-.284.07-.421s-.065-.259-.141-.361l.001.002a.76.76 0 0 0-.308-.235l-.005-.002zm-2.115-1.423a.947.947 0 0 1 .324.364.91.91 0 0 1 .083.479c-.018.173-.09.351-.213.533s-.262.313-.415.392c-.154.081-.311.115-.473.102s-.315-.07-.461-.169a1.02 1.02 0 0 1-.353-.397.895.895 0 0 1-.095-.505v.004c.014-.176.078-.348.192-.515.115-.169.252-.293.41-.372a.926.926 0 0 1 .505-.095h-.004c.174.013.34.073.499.18zm1.27-.017L8.75 28.454l-.216-.147.341-.502.249-.319.197-.358.755-1.112.226.153zm-1.39.228a.768.768 0 0 0-.372-.136l-.046-.001a.731.731 0 0 0-.336.081l.004-.002c-.123.062-.228.158-.316.287a.815.815 0 0 0-.151.463.73.73 0 0 0 .072.317l-.002-.004a.738.738 0 0 0 .262.298.751.751 0 0 0 .374.135h.003l.045.001a.728.728 0 0 0 .336-.081l-.004.002c.119-.061.223-.157.31-.286s.139-.262.154-.397a.735.735 0 0 0-.069-.384l.002.004a.793.793 0 0 0-.264-.295l-.003-.002zm-4.004-1.217a.921.921 0 0 1-.202-.392.633.633 0 0 1 .033-.41l-.002.004a.977.977 0 0 1 .303-.392l.9-.749.175.209-.88.732c-.163.136-.252.279-.266.431-.017.151.035.3.158.448.092.11.195.188.309.233a.59.59 0 0 0 .354.028l-.004.001a.831.831 0 0 0 .355-.186l.815-.678.175.209-1.55 1.29-.167-.201.425-.354-.053.099a.729.729 0 0 1-.465-.019l.005.002a.958.958 0 0 1-.419-.305zm.284-3.211c.093.171.139.345.138.524a.983.983 0 0 1-.148.499l.002-.004a1.06 1.06 0 0 1-.404.374 1.04 1.04 0 0 1-.533.138.963.963 0 0 1-.496-.149l.004.002a1.044 1.044 0 0 1-.367-.399 1.05 1.05 0 0 1-.14-.527c0-.183.053-.353.144-.497l-.002.004a1.04 1.04 0 0 1 .404-.374c.175-.096.353-.142.533-.138a.96.96 0 0 1 .495.145c.151.095.274.229.369.402zm-.212.116a.765.765 0 0 0-.271-.294.694.694 0 0 0-.362-.1h-.009a.84.84 0 0 0-.412.111.827.827 0 0 0-.316.287.674.674 0 0 0-.112.363v.001c-.004.131.028.259.097.385s.16.222.272.289a.691.691 0 0 0 .368.105.83.83 0 0 0 .412-.111.833.833 0 0 0 .316-.287.719.719 0 0 0 .113-.367v-.001a.754.754 0 0 0-.098-.38zM4.367 20.3l-1.728 1.287-.072-.251 1.606-1.18.033.114-1.994-.167-.065-.225 1.603-1.191.033.114-1.992-.159-.069-.24 2.149.178.071.247-1.504 1.135-.022-.077 1.878.168.071.247zm-.71-4.153v.021c0 .161-.024.316-.069.463l.003-.011a1.045 1.045 0 0 1-.178.351l-.216-.121a1.233 1.233 0 0 0 .221-.72c-.002-.192-.032-.33-.092-.414a.285.285 0 0 0-.243-.125c-.074.001-.132.025-.172.074a.421.421 0 0 0-.095.185c-.022.077-.041.163-.055.258s-.032.19-.052.285a1.15 1.15 0 0 1-.086.254.548.548 0 0 1-.164.19.49.49 0 0 1-.276.071h-.01a.5.5 0 0 1-.288-.091l.002.001a.608.608 0 0 1-.206-.267 1.114 1.114 0 0 1-.08-.437v-.008c0-.136.019-.269.053-.394l-.002.01c.032-.131.076-.239.132-.324l.22.117a.876.876 0 0 0-.127.283l-.001.006c-.025.09-.04.194-.04.301v.007c.002.182.035.316.099.403a.284.284 0 0 0 .239.125.239.239 0 0 0 .18-.07.52.52 0 0 0 .101-.185l.001-.004c.022-.08.041-.166.055-.258.015-.095.033-.189.055-.281.02-.095.048-.181.086-.258a.44.44 0 0 1 .42-.264.49.49 0 0 1 .308.098.634.634 0 0 1 .202.283c.047.122.071.272.073.449zm-1.854-2.535a.914.914 0 0 1 .166-.409.654.654 0 0 1 .324-.24l.005-.001a.977.977 0 0 1 .495-.026l1.155.193-.045.269-1.129-.188c-.209-.035-.376-.008-.5.08-.126.085-.205.223-.236.412a.773.773 0 0 0 .025.386.588.588 0 0 0 .206.283.849.849 0 0 0 .372.148l1.045.174-.045.269-2.81-.468.045-.269 1.367.228-.111.036a.724.724 0 0 1-.285-.354l-.002-.005a.961.961 0 0 1-.042-.517zm2.62-1.885a1.06 1.06 0 0 1-.309.446.996.996 0 0 1-.465.211l-.006.001c-.178.028-.36.007-.547-.064a1.044 1.044 0 0 1-.451-.315.964.964 0 0 1-.207-.463l-.001-.005A1.045 1.045 0 0 1 2.502 11c.071-.187.174-.336.31-.449a.933.933 0 0 1 .462-.212l.005-.001c.175-.029.358-.008.547.064.187.071.337.176.451.315a.952.952 0 0 1 .211.47 1.07 1.07 0 0 1-.066.542zm-.226-.085a.77.77 0 0 0 .048-.397.703.703 0 0 0-.165-.346l.001.001a.843.843 0 0 0-.352-.24.836.836 0 0 0-.423-.054.679.679 0 0 0-.35.152l.001-.001c-.102.082-.179.19-.23.324s-.065.266-.043.394c.02.128.073.244.16.348s.204.184.352.241c.146.055.287.073.423.054s.256-.075.356-.154l-.001.001a.76.76 0 0 0 .225-.321zm1.34-2.172a.945.945 0 0 1-.352.337.894.894 0 0 1-.42.103l-.059-.002h.003c-.174-.012-.354-.076-.541-.193s-.322-.25-.407-.4c-.087-.151-.126-.307-.119-.468s.058-.317.152-.467c.102-.163.23-.285.384-.367a.898.898 0 0 1 .5-.114h-.003c.176.008.351.065.522.172.173.109.302.24.386.396s.122.321.114.497a1.005 1.005 0 0 1-.163.505zm.063 1.267L3.259 9.273l.139-.221.514.322.328.237.365.183 1.139.713-.145.231zm-.278-1.379a.76.76 0 0 0 .122-.376v-.019a.728.728 0 0 0-.094-.359l.002.004c-.067-.12-.166-.222-.299-.304s-.266-.127-.401-.133l-.04-.001a.73.73 0 0 0-.342.084l.004-.002a.746.746 0 0 0-.289.273.75.75 0 0 0-.121.38V8.926c0 .13.034.253.094.359l-.002-.004c.066.117.165.217.297.299a.885.885 0 0 0 .442.14.73.73 0 0 0 .342-.084l-.004.002a.786.786 0 0 0 .287-.278zm1.071-4.054a.917.917 0 0 1 .384-.215.652.652 0 0 1 .412.018l-.004-.002a.976.976 0 0 1 .403.288l.782.872-.203.182-.764-.852c-.142-.158-.289-.242-.441-.25-.152-.012-.299.046-.442.174a.76.76 0 0 0-.221.317.589.589 0 0 0-.015.354l-.001-.004a.85.85 0 0 0 .198.348l.708.789-.203.182-1.347-1.5.195-.174.369.412-.101-.049a.74.74 0 0 1 .002-.465l-.002.005a.955.955 0 0 1 .29-.43zm3.2.174c-.167.099-.34.152-.519.157h-.013a.997.997 0 0 1-.492-.129l.005.003a1.047 1.047 0 0 1-.389-.39 1.048 1.048 0 0 1-.158-.527v-.015a.97.97 0 0 1 .131-.487l-.002.005a1.05 1.05 0 0 1 .385-.381c.172-.102.346-.155.522-.159l.033-.001c.171 0 .332.046.47.127l-.004-.002c.156.086.285.216.389.39.102.172.155.347.158.527v.023c0 .175-.047.34-.129.481l.002-.005c-.09.155-.219.282-.388.383zm-.124-.208a.696.696 0 0 0 .37-.654.827.827 0 0 0-.127-.407.832.832 0 0 0-.298-.305.676.676 0 0 0-.353-.099h-.015.001c-.131 0-.258.037-.381.111s-.216.167-.279.282a.694.694 0 0 0-.092.348v.025-.001a.82.82 0 0 0 .127.407.84.84 0 0 0 .298.305.74.74 0 0 0 .372.1.75.75 0 0 0 .379-.114l-.003.002zm1.754-.684L9.87 2.908l.248-.082 1.241 1.561-.113.037.09-1.998.223-.073 1.252 1.557-.113.037.083-1.996.237-.078-.096 2.153-.244.08-1.192-1.46.077-.025-.096 1.883-.244.08zm4.169-.878a1.628 1.628 0 0 1-.486-.051l.011.002a1.041 1.041 0 0 1-.357-.166l.114-.22a1.208 1.208 0 0 0 .669.197l.061-.001h-.003c.192-.008.329-.043.411-.106a.283.283 0 0 0 .116-.247.215.215 0 0 0-.08-.17.427.427 0 0 0-.188-.088 1.934 1.934 0 0 0-.25-.046l-.009-.001a5.744 5.744 0 0 1-.32-.047l.033.005a1.115 1.115 0 0 1-.264-.08l.007.003a.532.532 0 0 1-.194-.156l-.001-.001a.491.491 0 0 1-.081-.273l-.001-.027c0-.101.03-.195.082-.274l-.001.002a.597.597 0 0 1 .26-.215c.118-.056.263-.088.434-.095l.06-.001a1.5 1.5 0 0 1 .344.04l-.01-.002c.132.028.241.068.328.121l-.11.224a.856.856 0 0 0-.288-.117l-.006-.001a1.135 1.135 0 0 0-.262-.03l-.049.001h.002c-.182.008-.315.045-.399.113a.279.279 0 0 0-.116.243.233.233 0 0 0 .077.177.54.54 0 0 0 .192.096c.08.02.167.035.259.047.095.011.19.026.283.046.095.016.182.042.261.077a.434.434 0 0 1 .279.411.49.49 0 0 1-.087.311.632.632 0 0 1-.275.212 1.278 1.278 0 0 1-.446.088zm2.487-1.946a.915.915 0 0 1 .414.151.648.648 0 0 1 .252.32.98.98 0 0 1 .043.494l-.153 1.161-.27-.036.15-1.135c.028-.211-.004-.376-.097-.497-.09-.123-.23-.197-.42-.222-.142-.019-.27-.006-.384.038s-.208.119-.275.214l-.001.002a.832.832 0 0 0-.135.378l-.139 1.05-.27-.035.373-2.825.27.036-.181 1.374-.04-.11a.726.726 0 0 1 .344-.297l.005-.002a.966.966 0 0 1 .515-.06zm2.013 2.56a1.074 1.074 0 0 1-.456-.293.99.99 0 0 1-.226-.457l-.001-.006a1.06 1.06 0 0 1 .045-.548 1.04 1.04 0 0 1 .3-.462.964.964 0 0 1 .456-.223l.006-.001c.173-.033.354-.017.54.046.189.064.342.163.459.294.114.124.195.28.228.454l.001.006c.035.174.02.357-.045.548a1.053 1.053 0 0 1-.3.462.96.96 0 0 1-.457.227l-.006.001a1.067 1.067 0 0 1-.544-.048zm.078-.229a.7.7 0 0 0 .738-.142.832.832 0 0 0 .228-.36.843.843 0 0 0 .04-.425.686.686 0 0 0-.163-.344l.001.001c-.085-.099-.195-.172-.331-.218a.74.74 0 0 0-.739.143l.001-.001a.827.827 0 0 0-.228.36.839.839 0 0 0-.04.425.74.74 0 0 0 .165.349.747.747 0 0 0 .329.213zm2.16 1.232a.943.943 0 0 1-.35-.339.891.891 0 0 1-.119-.448v-.024.001c.006-.174.064-.356.173-.547s.238-.331.385-.421c.148-.092.302-.138.464-.136s.319.046.472.134c.166.096.293.219.381.37.091.15.135.314.132.493a1.059 1.059 0 0 1-.153.527 1.064 1.064 0 0 1-.382.401.936.936 0 0 1-.482.133h-.012.001a1.02 1.02 0 0 1-.511-.143zm-1.264.11 1.379-2.392.226.13-.303.526-.225.336-.17.372-.671 1.165-.236-.136zm1.368-.329a.76.76 0 0 0 .381.108.741.741 0 0 0 .374-.107l-.003.002c.118-.071.216-.174.294-.31s.118-.271.119-.406V4.38a.729.729 0 0 0-.097-.365l.002.004a.735.735 0 0 0-.283-.278.754.754 0 0 0-.386-.107.741.741 0 0 0-.374.107l.003-.002c-.114.07-.211.173-.288.308s-.119.271-.124.407v.012c0 .133.035.257.097.365l-.002-.004a.79.79 0 0 0 .288.277zm4.115.929c.114.118.19.243.23.376a.642.642 0 0 1-.003.412l.001-.005a.98.98 0 0 1-.274.413l-.844.813-.189-.196.824-.794c.153-.147.231-.297.234-.449.006-.152-.057-.297-.191-.435a.783.783 0 0 0-.325-.21.577.577 0 0 0-.355-.002l.004-.001a.848.848 0 0 0-.341.211l-.763.735-.189-.196 1.452-1.399.181.188-.398.384.045-.102a.713.713 0 0 1 .465-.015l-.005-.001a.966.966 0 0 1 .441.274zm-.01 3.269a1.063 1.063 0 0 1-.174-.513l-.001-.046c0-.167.041-.325.114-.463l-.003.005c.083-.16.209-.293.377-.401.17-.109.344-.167.522-.175l.046-.001c.166 0 .323.042.46.116l-.005-.003c.156.082.288.207.394.372a1.046 1.046 0 0 1 .178.58c0 .16-.04.311-.112.442l.002-.005a1.036 1.036 0 0 1-.377.401 1.052 1.052 0 0 1-.576.177.953.953 0 0 1-.455-.114l.005.003a1.066 1.066 0 0 1-.396-.375zm.204-.13a.698.698 0 0 0 .668.348h-.003a.835.835 0 0 0 .403-.14.823.823 0 0 0 .295-.308.674.674 0 0 0 .086-.37c-.005-.131-.046-.256-.123-.377a.736.736 0 0 0-.62-.35l-.049.002h.002a.822.822 0 0 0-.403.14.832.832 0 0 0-.295.308.731.731 0 0 0-.087.377v-.001a.755.755 0 0 0 .126.374l-.002-.003zm.735 1.729 1.631-1.407.09.245-1.518 1.292-.041-.112 2.001.023.081.22-1.514 1.303-.041-.112 1.998.016.086.234-2.156-.024-.089-.242 1.419-1.239.028.076-1.886-.033-.089-.242z"/></symbol><symbol id="icon-facebook" viewBox="0 0 32 32"><path d="M24 2.666h-4a6.666 6.666 0 0 0-6.666 6.666v4.001h-4v5.333h4v10.667h5.334V18.666h4l1.333-5.333h-5.333v-4c0-.736.596-1.333 1.332-1.334h4V2.665z"/></symbol><symbol id="icon-instagram" viewBox="0 0 32 32"><path fill="none" stroke="#fff" style="stroke:var(--color1,#fff)" stroke-linejoin="round" stroke-linecap="round" stroke-width="2.286" d="M22.667 2.666H9.333a6.666 6.666 0 0 0-6.666 6.666V22.667a6.666 6.666 0 0 0 6.666 6.666h13.334a6.666 6.666 0 0 0 6.666-6.666v-.001 0V9.332a6.666 6.666 0 0 0-6.666-6.666h-.001 0z"/><path fill="none" stroke="#fff" style="stroke:var(--color1,#fff)" stroke-linejoin="round" stroke-linecap="round" stroke-width="2.286" d="M21.334 15.16a5.334 5.334 0 0 1-10.549 1.594l-.004-.03A5.334 5.334 0 0 1 21.33 15.13l.004.03zm1.999-6.494h.014"/></symbol><symbol id="icon-logo" viewBox="0 0 40 32"><path d="M16.463 31.448v-5.12l-.132-.839v-8.563c0-1.971-.559-3.487-1.677-4.546-1.089-1.059-2.722-1.589-4.899-1.589-1.501 0-2.928.25-4.281.75s-2.501 1.162-3.443 1.986L.619 11.188c1.177-1 2.589-1.766 4.237-2.295a16.102 16.102 0 0 1 5.208-.839c3.001 0 5.311.75 6.93 2.251 1.648 1.471 2.472 3.722 2.472 6.753v14.389h-3.001zm-7.989.221c-1.736 0-3.251-.28-4.546-.839-1.265-.589-2.236-1.383-2.913-2.383C.338 27.417 0 26.24 0 24.916c0-1.207.28-2.295.839-3.266.589-1 1.53-1.795 2.825-2.383 1.324-.618 3.09-.927 5.297-.927h7.989v2.339H9.049c-2.236 0-3.796.397-4.679 1.192-.854.794-1.28 1.78-1.28 2.957 0 1.324.515 2.383 1.545 3.178s2.472 1.192 4.326 1.192c1.766 0 3.281-.397 4.546-1.192 1.295-.824 2.236-2.001 2.825-3.531l.706 2.163c-.589 1.53-1.618 2.751-3.09 3.663-1.442.912-3.266 1.368-5.473 1.368z"/><path d="M29.44 31.669c-2.413 0-4.532-.5-6.356-1.501-1.825-1.03-3.252-2.428-4.281-4.193-1.03-1.795-1.545-3.84-1.545-6.135s.486-4.326 1.457-6.091c1-1.766 2.354-3.149 4.061-4.149 1.736-1.03 3.678-1.545 5.826-1.545 2.177 0 4.105.5 5.782 1.501 1.706.971 3.046 2.354 4.017 4.149.971 1.766 1.457 3.811 1.457 6.135 0 .147-.015.309-.044.486v.486H19.643v-2.339h18.494l-1.236.927c0-1.677-.368-3.163-1.103-4.458-.706-1.324-1.677-2.354-2.913-3.09s-2.663-1.103-4.281-1.103c-1.589 0-3.016.368-4.281 1.103s-2.251 1.766-2.957 3.09-1.059 2.84-1.059 4.546v.486c0 1.766.382 3.325 1.148 4.679a8.571 8.571 0 0 0 3.266 3.134c1.412.735 3.016 1.103 4.811 1.103 1.412 0 2.722-.25 3.928-.75a8.169 8.169 0 0 0 3.178-2.295l1.766 2.03c-1.03 1.236-2.325 2.178-3.884 2.825-1.53.647-3.222.971-5.076.971zM37.297 3.31H21.849V0h15.448v3.31z"/></symbol><symbol id="icon-plants" viewBox="0 0 42 32"><path fill="#f58b3d" style="fill:var(--color1,#f58b3d)" opacity=".255" d="M38.92 25.599c.539 3.691-12.54 6.099-23.798 4.419S-1.301 21.776 4.072 18.28c5.372-3.496 34.309 3.628 34.849 7.319z"/><path fill="#f58b3d" style="fill:var(--color1,#f58b3d)" d="M22.74 10.218c.204-.142.519-.052.724.032.079.032.281.136.43.253a4.835 4.835 0 0 1-.053-.245 8.417 8.417 0 0 1-.128-1.025c-.005-.089.002-.189.009-.29l.007-.103a.057.057 0 0 1-.016-.034l-.002.015-.002.01c-.001.001-.003-.002-.007-.008a.03.03 0 0 0-.005-.007c-.151-.207-.279-.441-.296-.698-.015-.218.181-.63.458-.344.124.127.092 1.022-.094 1.077.05.296.112.592.191.884a.138.138 0 0 1 .035-.001 2.28 2.28 0 0 1 .002-.179c.028-.235.242-.711.583-.619.262.071.101.364.012.492-.144.206-.306.296-.512.403-.004.044-.035.07-.072.079.138.472.319.932.556 1.367l.006-.028c.03-.132.065-.286.087-.318.116-.169.373-.376.61-.276.498.21-.042.815-.466.881a.184.184 0 0 1-.056.05c.082.131.17.26.264.385.141.188.293.376.452.563.005-.146.068-.471.086-.506.109-.212.422-.431.676-.28.286.17.027.491-.136.637-.067.06-.397.278-.514.279.384.44.808.872 1.24 1.289a6.868 6.868 0 0 1-.077-.757c.027-.294.238-.765.654-.65.404.111.225.6.087.833a1.263 1.263 0 0 1-.339.383c-.025.018-.058.032-.091.047a.4.4 0 0 0-.105.058c-.023.021-.03.044-.037.067a.122.122 0 0 1-.041.07c.233.224.468.444.699.657.109.101.22.2.332.297.061-.023.149.007.144.087a.094.094 0 0 1-.007.031l.257.216a.492.492 0 0 1 .003-.09c-.062.081-.06-.037-.058-.127a.565.565 0 0 0-.001-.075c-.009-.058-.021-.115-.033-.172-.025-.122-.05-.243-.049-.369.003-.267.187-.715.576-.556.357.146.227.542.093.79a2.241 2.241 0 0 1-.324.431 1.068 1.068 0 0 0-.07.089c-.036.048-.07.095-.096.112.332.272.672.537 1.011.801l.455.356c.007-.026.012-.052.017-.076-.009.01-.022.014-.039.013l-.019-.079c-.093-.39-.378-1.58.393-1.349.565.169.166 1.205-.255 1.567.256.202.509.407.757.618.179.153.353.311.52.474-.087-.211-.168-.485-.114-.702.078-.317.443-.616.799-.436.444.226.102.534-.218.823-.163.148-.322.29-.367.414.531.535.985 1.13 1.288 1.807.33.736.636 1.726.466 2.55.031-.362-.102-.817-.196-1.137a10.709 10.709 0 0 1-.036-.122 6.16 6.16 0 0 0-.605-1.429c-.423-.723-.982-1.336-1.626-1.893-.147.047-.306.134-.439.205-.081.044-.152.083-.203.103-.247.097-.72.237-.878-.07-.155-.302.24-.471.484-.539a1.28 1.28 0 0 1 .67-.004 48.38 48.38 0 0 0-1.04-.814l-.193-.148a3.138 3.138 0 0 0-.291.266c-.331.325-.723.71-1.073.396-.528-.475.482-.958.912-.92a.873.873 0 0 1 .154.029c-.439-.341-.871-.69-1.28-1.062-.073.012-.19.111-.33.23-.315.267-.749.634-1.076.345-.236-.209-.155-.534.073-.72s.561-.186.843-.124c.122.027.234.079.339.142l.013.001c-.402-.371-.807-.75-1.196-1.142l-.021.006a.111.111 0 0 1-.099.03l-.061.019c-.309.098-.705.223-1.013.169-.226-.04-.432-.208-.24-.416.156-.169.579-.145.785-.105.101.02.21.076.32.133.046.024.093.048.138.069a.093.093 0 0 1 .056-.043 14.877 14.877 0 0 1-1.085-1.227c-.101.014-.213.055-.328.097-.277.101-.575.209-.789-.024-.316-.344.278-.544.56-.511a1.3 1.3 0 0 1 .28.068 4.339 4.339 0 0 1-.557-1.117l-.004.002-.006.003.005-.003a.008.008 0 0 1 .004-.002l-.037-.118a.503.503 0 0 0-.052-.023c.128.081-.413.121-.514.128-.224.016-.524.023-.688-.146-.138-.141-.13-.35.039-.468zm10.305 11.888a.906.906 0 0 1-.077.319c.033-.103.058-.209.077-.319z"/><path fill="#f1f447" style="fill:var(--color2,#f1f447)" opacity=".2" d="M12.577 2.591c-.149-.103-.379-.037-.529.024a1.546 1.546 0 0 0-.314.183c.014-.058.027-.117.039-.177.046-.244.078-.494.094-.741.004-.065-.001-.137-.006-.21l-.005-.074a.045.045 0 0 0 .012-.025.05.05 0 0 1 .001.011l.001.007.005-.006a.018.018 0 0 1 .004-.005c.111-.15.204-.319.216-.504.011-.157-.132-.455-.334-.249-.091.092-.067.739.069.779a6.83 6.83 0 0 1-.139.64c-.009-.001-.017-.002-.026 0a1.67 1.67 0 0 0-.001-.13c-.02-.17-.177-.514-.426-.447-.191.052-.074.263-.009.356.105.149.223.214.373.291.003.032.026.051.053.057a4.963 4.963 0 0 1-.406.988l-.005-.02c-.022-.095-.047-.207-.064-.23-.085-.122-.272-.271-.445-.199-.363.152.031.589.34.637a.124.124 0 0 0 .041.036c-.06.095-.124.188-.193.278a8.532 8.532 0 0 1-.33.407 2.003 2.003 0 0 0-.062-.366c-.079-.153-.308-.311-.493-.202-.209.123-.02.355.099.46.049.043.29.201.375.202a15.87 15.87 0 0 1-.906.933c.026-.135.06-.506.057-.548-.019-.213-.174-.553-.477-.47-.295.08-.165.434-.064.603a.91.91 0 0 0 .248.277c.018.013.042.023.066.034.029.013.058.025.077.042.017.015.022.032.027.049s.011.035.03.05c-.17.162-.342.321-.511.476-.08.073-.161.144-.243.215-.045-.017-.109.005-.105.063 0 .008.003.016.005.022l-.188.156a.385.385 0 0 0-.002-.065c.045.058.043-.027.042-.092 0-.023-.001-.043.001-.054a2.47 2.47 0 0 1 .024-.124c.018-.088.037-.176.036-.267-.002-.193-.136-.517-.42-.402-.261.106-.166.392-.068.571.062.114.147.215.236.312a.754.754 0 0 1 .051.064.413.413 0 0 0 .07.081c-.242.197-.49.388-.738.58l-.333.258a.691.691 0 0 1-.012-.055c.007.007.016.01.028.01l.013-.057c.068-.282.277-1.143-.286-.976-.413.123-.122.871.186 1.133-.187.146-.372.295-.553.447a7.3 7.3 0 0 0-.38.343c.063-.153.123-.351.084-.508-.057-.229-.323-.445-.583-.315-.324.163-.075.386.159.595.119.107.235.21.268.299-.388.387-.72.817-.941 1.307-.241.533-.465 1.248-.342 1.844-.023-.262.075-.591.144-.822l.026-.089c.103-.358.25-.707.443-1.033.309-.523.717-.967 1.188-1.37.107.034.224.097.32.148.059.032.111.06.148.074.18.07.526.171.641-.051.113-.218-.175-.341-.354-.389a.954.954 0 0 0-.489-.003c.249-.201.505-.395.76-.589l.141-.107c.065.048.137.118.213.192.241.235.527.513.783.286.386-.344-.351-.692-.666-.665a.584.584 0 0 0-.112.021c.321-.247.636-.499.935-.769.054.009.139.08.241.166.23.193.547.458.785.249.172-.151.114-.386-.053-.521s-.409-.135-.615-.089a.845.845 0 0 0-.248.103h-.01c.294-.268.589-.542.874-.826l.015.004c.017.019.046.026.072.022l.044.014c.225.07.515.161.74.122.165-.029.315-.151.176-.301-.114-.122-.422-.104-.573-.075-.073.014-.153.055-.234.096-.034.017-.068.035-.101.05a.067.067 0 0 0-.041-.031c.281-.285.549-.58.793-.887.074.01.155.04.239.07.203.073.42.151.576-.018.23-.249-.203-.393-.409-.37a.895.895 0 0 0-.204.05c.177-.253.312-.524.407-.808l.003.001.004.002-.004-.002-.003-.002c.009-.028.019-.057.027-.086l.038-.017c-.094.059.301.087.375.092.163.012.382.016.502-.105.101-.102.095-.253-.028-.338zm-7.536 8.576c.007.08.029.152.071.212a1.124 1.124 0 0 1-.071-.212z"/><path fill="#b45661" style="fill:var(--color3,#b45661)" opacity=".49" d="M28.63 16.63c.801-.038 1.792.39 1.878 1.187.062.579.043 1.156.139 1.735.077.462.239.906.461 1.326.213.405.655.749.77 1.182.073.276.032.663-.069.933-.123.328-.058.302.187.577.48.539.912 1.091 1.218 1.735.44.927.729 2.01.565 3.025-.021.129-.045.591-.239.623-.217.036-.115-.228-.104-.314.074-.545.139-1.021.05-1.575-.343-2.136-2.017-3.543-3.108-5.355-.06-.093-.186-.316-.275-.463-.139-.232-.279-.673-.467-.845-.354-.324-.029.327.04.451.087.157.183.324.273.462.409.639.866 1.336 1.288 1.994-1.827.381-3.114-1.629-3.604-2.95-.404-1.089-.887-3.634.995-3.727z"/><path fill="#e7502f" style="fill:var(--color4,#e7502f)" opacity=".49" d="M39.369 14.608c-1.339.097-2.199.906-2.599 2.037-.216.609-.24 1.236-.36 1.862-.18.942-.568 1.657-1.327 2.328a2.36 2.36 0 0 0-.531.65 2.776 2.776 0 0 0-.613.802c-.199.403-.256.886-.026 1.288.062.108.217.325.377.423-.6 1.168-.929 2.448-.892 3.726.023.771.064 1.543.112 2.314.013.207.087.549.197.201.101-.317-.026-.816-.038-1.147-.057-1.615-.106-3.084.621-4.593.076-.158.157-.315.241-.471l.014-.009.009.007.021-.031a.435.435 0 0 0 .065-.084c.064-.082.137-.178.138-.23v-.001c.45-.672.965-1.307 1.492-1.929-.004.005.571-.712.482-.316-.043.191-.466.554-.636.756-.378.45-.821 1.02-1.19 1.571-.05.026-.12.154-.17.25-.028.048-.054.097-.08.14 1.306.395 2.322-.401 3.015-1.326l.002-.003c.211-.256.427-.509.697-.712.45-.337.932-.397 1.463-.563 1.447-.453 2.063-2.169 2.258-3.443.221-1.437-.858-3.64-2.742-3.498z"/><path fill="#e7502f" style="fill:var(--color4,#e7502f)" opacity=".49" d="M36.723 10.585c-1.375 1.309-2.039 3.125-2.565 4.832-.587 1.907-.975 3.842-.99 5.825-.01 1.302-.048 2.613.035 3.913.029.462.08.925.16 1.382.007.038.186 1.058.357.82.097-.135-.184-1.059-.205-1.212-.119-.866-.147-1.739-.141-2.611.01-1.436-.037-2.866.122-4.297.024-.214.042-.438.098-.647.059-.222-.016-.125.176-.213.186-.086.417-.073.61-.181.767-.426 1.16-1.519 1.465-2.236.349-.82.562-1.695.731-2.559a16.62 16.62 0 0 0 .264-1.907c.016-.203.017-.414.06-.613.012-.054.071-.149.068-.196-.005-.101-.071-.16-.076-.244a3.93 3.93 0 0 0-.169.146zM29.227 28.026c0 2.165 1.918 3.92 4.284 3.92s4.284-1.755 4.284-3.92z"/><path fill="#b45661" style="fill:var(--color3,#b45661)" opacity=".49" d="M36.448 24.594c1.06-.071 2.244.711 2.756 1.526.412.657.343 1.519.088 2.217-.171.467-.543 1.133-1.163 1.139-.777.008-.814-.87-.829-1.383-.02-.682-.114-1.277-.702-1.742-.073-.057-.149-.111-.225-.165-.068-.048-.135-.095-.2-.146l-.031-.024c-.208-.16-.426-.328-.453-.591-.038-.382.197-.451.557-.38.012.002.043.013.086.028.184.064.576.2.501.037-.028-.061-.13-.11-.259-.146-.333-.033-.73-.072-.844-.049-1.232.247-1.712 1.809-1.839 2.801a8.795 8.795 0 0 0-.035.322h-.226c.016-.26.036-.519.084-.776.182-.983.749-2.426 1.995-2.586.046-.006.215-.007.42.004a.806.806 0 0 1 .32-.087z"/><path fill="#b45661" style="fill:var(--color3,#b45661)" opacity=".25" d="M10.46 9.471c.247-.322.704-1.139 1.051-1.254.224-.074.158.692.161.838.011.565-.049 1.127-.124 1.687-.134 1.011-.571 1.911-1.171 2.771-.309.443-.671.891-1.172 1.167-.231.127-.509.148-.737.258-.266.128-.121.024-.241.278-.166.351-.219.805-.296 1.18-.353 1.722-1.208 10.823-1.06 12.574a.118.118 0 0 1-.235.003c-.063-1.005.48-7.963.754-10.238s.551-4.286.829-5.073c.337-.955.947-2.104 1.454-2.994.236-.414.492-.813.785-1.196z"/><path fill="#f1f447" style="fill:var(--color2,#f1f447)" opacity=".25" d="M12.29 20.631c.642-.431 1.336.382.756.814-.321.238-.657.154-.846-.045-.123.137-.237.28-.348.401-.336.368-.654.745-.957 1.131-.631.801-1.171 1.648-1.736 2.479a52.452 52.452 0 0 0-1.616 2.486c-.428.713-.999 1.551-1.146 2.332.222-1.657 1.066-3.249 2.072-4.71.997-1.449 2.141-3.031 3.685-4.174-.157-.211-.161-.513.137-.713z"/><path fill="#b45661" style="fill:var(--color3,#b45661)" opacity=".25" d="M.112 16.591c.359.064.946.807 1.242 1.091.352.337.671.695.972 1.071a17.929 17.929 0 0 1 1.72 2.566 22.643 22.643 0 0 1 1.913 4.556c.286.975.471 1.985.58 2.988.021.189.237 1.648-.075 1.687-.281.035-.194-1.108-.208-1.263-.153-1.754-.612-3.461-1.251-5.114-.139-.36-.268-.801-.491-1.125-.16-.233-.001-.152-.283-.24-.242-.076-.517-.057-.764-.15-.538-.202-.968-.593-1.345-.987-.733-.766-1.314-1.594-1.617-2.575-.168-.544-.322-1.091-.408-1.652-.022-.145-.216-.894.015-.852z"/><path fill="#e7502f" style="fill:var(--color4,#e7502f)" opacity=".25" d="M1.53 4.223c1.353 2.146 2.464 4.504 3.182 6.893.435 1.447.739 2.932 1.041 4.406.468 2.282.91 4.565 1.036 6.888.127 2.336.377 5.031-.459 7.282.418-2.285.02-4.717-.05-7.016a38.184 38.184 0 0 0-.259-3.275c-.124-1.058-.327-2.112-.516-3.162-.092-.511-.189-1.022-.287-1.532-.029-.152-.042-.604-.147-.708s-.648-.147-.819-.224a4.388 4.388 0 0 1-.95-.607c-.547-.445-1.023-1.027-1.398-1.6C1.035 10.241.688 8.622.705 7.085c.003-.298.528-3.511.317-3.555a.672.672 0 0 0 .036-.042c.159.244.316.49.471.737z"/><path fill="#e7502f" style="fill:var(--color4,#e7502f)" opacity=".25" d="M16.13 11.965c.021-.028.157-.219.088-.207.139-.025-.192.211.155.066-.165.142-.07.327-.067.519.004.311-.053.62-.117.924a5.944 5.944 0 0 1-.471 1.397 6.402 6.402 0 0 1-2.248 2.524c-.475.301-.94.404-1.481.542-.342.088-.369.249-.551.553a32.287 32.287 0 0 0-1.082 1.916c-.398.78-.784 1.562-1.149 2.356-1.228 2.675-2.227 5.447-2.751 8.316-.013-1.69.415-3.432.954-5.043.393-1.174.904-2.306 1.449-3.426.132-.272.332-.62.389-.92.039-.21-.081-.412-.136-.633-.214-.861-.199-1.826-.011-2.692.208-.955.808-1.398 1.824-1.533.371-.049.844-.031 1.184-.176.371-.158.524-.676.735-1.009a13.918 13.918 0 0 1 2.013-2.506c.214-.209.444-.401.689-.58.154-.113.48-.251.584-.39z"/><path fill="#f1f447" style="fill:var(--color2,#f1f447)" opacity=".25" d="M4.451 29.354c-.026-.162.111-.308.29-.308h3.605c.179 0 .316.146.29.308l-.279 1.728c-.085.527-.579.917-1.161.917H5.891c-.582 0-1.076-.39-1.161-.917l-.279-1.728z"/><path fill="#f58b3d" style="fill:var(--color1,#f58b3d)" d="M1.492 29.93c0 1.143.099 2.07 1.422 2.07s1.422-.927 1.422-2.07z"/><path fill="#f58b3d" style="fill:var(--color1,#f58b3d)" d="M3.307 29.217a2.258 2.258 0 0 0-.13.234 2.988 2.988 0 0 1 .036-.496c.046-.286.117-.571.183-.855.048-.204.045-.571.225-.734.05-.035.061.034.061.064.001.006 0-.122-.048-.1-.286.135-.378.56-.47.772-.134.31-.247.628-.294.951a2.023 2.023 0 0 0-.02.244l-.029-.065a4.385 4.385 0 0 0-.665-1.018c-.068-.078-.928-.852-.995-.734a.087.087 0 0 0 .042.043c.001.001.001 0 .001-.001.05.075.194.19.239.255.113.164.2.339.289.51.188.362.362.727.531 1.094.039.085.08.17.122.255-.431-.569-1.006-1.085-1.797-1.38.27.126.447.362.63.544.22.219.452.431.673.649.26.258.566.529.816.814.242.466.478.932.623 1.421-.06-.169-.005-.403-.015-.58a3.53 3.53 0 0 0-.051-.421.794.794 0 0 1 .069.185 9.438 9.438 0 0 0-.037-.294c.035-.091.069-.176.092-.246.118-.359.258-.712.449-1.057.177-.318.379-.633.6-.938l.311-.425c.068-.093.132-.241.227-.33-.611.511-1.278 1.026-1.666 1.639zM40.356 5.894c-.175-.534-.586-.953-1.013-1.336-.831-.746-1.277-1.207-1.574-2.299-.174-.642-.351-1.322-.904-1.788-.402-.339-1.094-.624-1.632-.381-.827.452-1.05 1.379-.966 2.209.103 1.029.629 1.664 1.638 2.043.569.213.947.495 1.255.986.247.392.391.884.701 1.24.464.532 1.044.768 1.76.68-.67-1.128-1.453-2.267-2.398-3.217-.088-.095-.61-.461-.505-.624.116-.179.651.494.647.49.274.288.528.595.778.904l-.002.001c.257.317.512.639.761.965.101.138.199.278.294.421.138.21.358.806.584.936a.37.37 0 0 0 .135.049c.154.231.304.464.447.7.373.616.693 1.266.84 1.961.043.203.013.962.164 1.108.277.268.196-.248.179-.404-.138-1.289-.644-2.388-1.378-3.472.226-.27.258-.956.187-1.173zM30.878 6.517c.292-.315.993-.368 1.422-.347.531.026 1.076.144 1.581.287.832.235 1.64.665 2.373 1.081.088.05 1.176.649 1.08.754s-1.163-.607-1.401-.729c-.508-.261-.973-.571-1.533-.744a5.95 5.95 0 0 0-1.802-.245c-.078.001-.333-.049-.339.057-.005.104.417.05.491.05.307.003.617.029.92.078a4.572 4.572 0 0 1 1.588.558c-.136.289-.461.422-.802.35-.295-.062-.583-.216-.871-.261a1.438 1.438 0 0 0-.591.039c-.509.135-.802.412-1.362.22-.439-.151-1.172-.694-.753-1.146zM29.623 1.449c-.648-.043-1.371.43-1.684.922-.252.397-.21.918-.054 1.34.104.282.332.685.711.689.474.005.497-.526.506-.836.012-.413.07-.772.429-1.053.044-.035.091-.067.137-.1.041-.029.083-.058.122-.088l.019-.015c.127-.097.26-.198.277-.357.023-.231-.12-.272-.34-.229-.007.001-.026.008-.053.017-.112.038-.352.121-.306.022.017-.037.079-.066.158-.088.204-.02.446-.043.516-.029.753.149 1.046 1.093 1.124 1.693.009.068.016.136.022.204h.138c-.01-.16-.022-.32-.052-.479-.111-.594-.458-1.466-1.219-1.563a2.175 2.175 0 0 0-.256.002.496.496 0 0 0-.196-.052z"/></symbol><symbol id="icon-burger" viewBox="0 0 32 32"><path d="M4 5.333h24V8H4V5.333zm8 9.334h16v2.667H12v-2.667zM4 24h24v2.667H4V24z"/></symbol><symbol id="icon-cross" viewBox="0 0 32 32"><path d="M32 3.223 28.777 0 16 12.777 3.223 0 0 3.223 12.777 16 0 28.777 3.223 32 16 19.223 28.777 32 32 28.777 19.223 16 32 3.223z"/></symbol></defs></svg>