<svg aria-hidden="true" style="position: absolute; width: 0; height: 0; overflow: hidden;" version="1.1" xmlns="http://www.w3.org/2000/svg" xmlns:xlink="http://www.w3.org/1999/xlink">
<defs>
<symbol id="icon-call-us" viewBox="0 0 32 32">
<path d="M30.604 5.068l-4.259-4.256c-0.499-0.502-1.189-0.812-1.952-0.812s-1.453 0.31-1.952 0.812l-0 0-4.589 4.58c-0.502 0.5-0.812 1.192-0.812 1.956s0.31 1.456 0.812 1.956l3.584 3.587c-0.862 1.978-2.027 3.667-3.456 5.090l-0 0c-1.424 1.432-3.111 2.599-4.984 3.424l-0.104 0.041-3.583-3.588c-0.499-0.502-1.189-0.812-1.952-0.812s-1.453 0.31-1.952 0.812l-0 0-4.593 4.58c-0.502 0.5-0.812 1.192-0.812 1.956s0.31 1.456 0.812 1.956l4.256 4.255c0.887 0.887 2.112 1.396 3.369 1.396 0.26 0 0.512-0.020 0.768-0.064 5.295-0.873 10.551-3.692 14.796-7.932 4.24-4.247 7.056-9.503 7.936-14.801 0.039-0.23 0.062-0.495 0.062-0.766 0-1.316-0.533-2.507-1.394-3.369l0 0zM29.1 8.727c-0.78 4.716-3.316 9.418-7.136 13.238s-8.519 6.356-13.236 7.135c-0.090 0.015-0.194 0.024-0.3 0.024-0.52 0-0.991-0.211-1.331-0.552l-4.18-4.179 4.432-4.436 4.828 4.836 0.864-0.32c5.316-1.993 9.436-6.113 11.385-11.297l0.044-0.133 0.32-0.864-4.832-4.829 4.432-4.433 4.18 4.179c0.432 0.432 0.631 1.040 0.531 1.632z"></path>
</symbol>
<symbol id="icon-btn" viewBox="0 0 31 32">
<path d="M21.314 13.667c0.002-0.010 0.003-0.022 0.003-0.033 0-0.106-0.077-0.194-0.178-0.21l-0.001-0-1.897-0.3c-0.011-0.002-0.024-0.003-0.037-0.003-0.118 0-0.213 0.095-0.213 0.213 0 0.107 0.079 0.196 0.183 0.211l0.001 0 1.686 0.267-0.267 1.686c-0.002 0.010-0.003 0.022-0.003 0.033 0 0.118 0.096 0.213 0.213 0.213 0.106 0 0.194-0.077 0.211-0.179l0-0.001 0.3-1.897zM11.219 21.079l10.010-7.273-0.251-0.345-10.010 7.273 0.251 0.345zM28.301 16.802c0.011-0.17 0.046-0.329 0.104-0.478l-0.004 0.011c0.058-0.145 0.126-0.257 0.203-0.337l0.207 0.137c-0.067 0.078-0.127 0.179-0.182 0.304-0.050 0.117-0.082 0.253-0.091 0.395l-0 0.004c-0.013 0.192 0.008 0.332 0.061 0.42 0.056 0.088 0.133 0.136 0.233 0.142 0.074 0.005 0.133-0.016 0.177-0.061 0.047-0.043 0.082-0.102 0.108-0.178 0.028-0.075 0.053-0.159 0.074-0.253s0.046-0.187 0.072-0.28c0.026-0.091 0.061-0.173 0.105-0.247 0.045-0.073 0.104-0.132 0.175-0.176l0.002-0.001c0.072-0.041 0.166-0.058 0.281-0.051 0.11 0.007 0.206 0.044 0.289 0.111s0.145 0.161 0.186 0.282c0.043 0.123 0.059 0.271 0.048 0.442-0.010 0.142-0.038 0.274-0.083 0.398l0.003-0.010c-0.042 0.128-0.093 0.233-0.155 0.313l-0.211-0.133c0.067-0.085 0.117-0.178 0.149-0.279 0.035-0.1 0.055-0.202 0.062-0.304 0.012-0.181-0.011-0.317-0.069-0.409-0.056-0.088-0.132-0.136-0.229-0.142-0.077-0.005-0.138 0.014-0.185 0.057-0.049 0.050-0.088 0.11-0.114 0.177l-0.001 0.004c-0.028 0.078-0.053 0.162-0.074 0.253-0.022 0.093-0.047 0.186-0.076 0.276-0.027 0.096-0.063 0.179-0.108 0.256l0.003-0.005c-0.041 0.077-0.097 0.136-0.169 0.177-0.070 0.044-0.159 0.063-0.269 0.055-0.118-0.008-0.217-0.048-0.3-0.12-0.080-0.069-0.14-0.168-0.181-0.297-0.038-0.126-0.051-0.277-0.039-0.453zM29.967 19.45c-0.039 0.159-0.103 0.291-0.195 0.395-0.087 0.105-0.206 0.181-0.34 0.216l-0.005 0.001c-0.141 0.039-0.307 0.036-0.496-0.009l-1.138-0.276 0.064-0.265 1.112 0.27c0.206 0.050 0.375 0.036 0.505-0.044 0.132-0.076 0.22-0.207 0.266-0.394 0.034-0.139 0.035-0.268 0.003-0.387s-0.097-0.221-0.184-0.297l-0.001-0.001c-0.091-0.080-0.211-0.138-0.361-0.174l-1.030-0.25 0.064-0.265 2.769 0.671-0.064 0.265-1.347-0.326 0.113-0.028c0.127 0.096 0.213 0.223 0.26 0.379 0.049 0.157 0.050 0.33 0.004 0.519zM27.201 21.162c0.083-0.176 0.196-0.317 0.341-0.421 0.136-0.096 0.302-0.16 0.481-0.176l0.004-0c0.179-0.015 0.36 0.020 0.541 0.104 0.183 0.086 0.325 0.201 0.427 0.348s0.159 0.307 0.172 0.483c0.014 0.176-0.021 0.353-0.105 0.532-0.085 0.181-0.199 0.322-0.343 0.425-0.145 0.105-0.305 0.164-0.482 0.177-0.177 0.016-0.357-0.019-0.54-0.104-0.181-0.084-0.323-0.201-0.427-0.348-0.098-0.136-0.162-0.301-0.176-0.481l-0-0.003c-0.013-0.178 0.023-0.357 0.106-0.535zM27.421 21.264c-0.062 0.132-0.088 0.263-0.077 0.392 0.013 0.13 0.059 0.249 0.138 0.357 0.081 0.111 0.192 0.2 0.333 0.266 0.144 0.067 0.283 0.096 0.418 0.085 0.135-0.007 0.259-0.053 0.361-0.126l-0.002 0.001c0.108-0.074 0.192-0.176 0.253-0.305s0.085-0.26 0.072-0.39c-0.011-0.136-0.059-0.259-0.134-0.361l0.001 0.002c-0.078-0.11-0.189-0.199-0.333-0.266-0.141-0.066-0.281-0.095-0.418-0.085s-0.262 0.056-0.367 0.128l0.002-0.002c-0.107 0.078-0.192 0.18-0.246 0.299l-0.002 0.005zM25.92 23.326c0.103-0.14 0.228-0.244 0.375-0.311 0.106-0.047 0.229-0.074 0.359-0.074 0.043 0 0.086 0.003 0.127 0.009l-0.005-0.001c0.172 0.025 0.348 0.102 0.525 0.232s0.303 0.273 0.377 0.428c0.076 0.157 0.104 0.315 0.084 0.476s-0.081 0.312-0.186 0.454c-0.113 0.155-0.25 0.268-0.41 0.338-0.113 0.054-0.245 0.086-0.385 0.086-0.042 0-0.084-0.003-0.125-0.008l0.005 0.001c-0.176-0.020-0.345-0.091-0.508-0.21-0.165-0.121-0.284-0.262-0.356-0.423-0.053-0.114-0.085-0.248-0.085-0.39 0-0.040 0.003-0.080 0.008-0.119l-0 0.005c0.019-0.173 0.085-0.337 0.199-0.492zM25.95 22.058l2.227 1.631-0.154 0.211-0.489-0.358-0.31-0.26-0.351-0.209-1.084-0.794 0.161-0.22zM26.126 23.453c-0.085 0.116-0.135 0.238-0.15 0.366-0.013 0.13 0.009 0.257 0.064 0.38 0.058 0.125 0.15 0.233 0.276 0.326s0.256 0.146 0.391 0.162c0.028 0.004 0.060 0.006 0.093 0.006 0.104 0 0.204-0.022 0.293-0.061l-0.005 0.002c0.12-0.051 0.223-0.135 0.308-0.251s0.134-0.239 0.149-0.372c0.002-0.022 0.004-0.047 0.004-0.072 0-0.112-0.025-0.217-0.069-0.312l0.002 0.004c-0.057-0.121-0.149-0.228-0.275-0.32s-0.256-0.148-0.391-0.168c-0.028-0.004-0.060-0.006-0.093-0.006-0.104 0-0.204 0.022-0.294 0.061l0.005-0.002c-0.125 0.059-0.228 0.146-0.305 0.254l-0.002 0.002zM24.76 27.412c-0.13 0.1-0.263 0.163-0.399 0.187-0.040 0.009-0.085 0.014-0.132 0.014-0.099 0-0.193-0.022-0.277-0.061l0.004 0.002c-0.135-0.057-0.262-0.163-0.381-0.317l-0.717-0.926 0.216-0.167 0.7 0.905c0.13 0.168 0.27 0.262 0.421 0.281 0.15 0.023 0.302-0.024 0.454-0.142 0.113-0.088 0.195-0.188 0.244-0.3 0.032-0.071 0.051-0.154 0.051-0.241 0-0.038-0.003-0.074-0.010-0.11l0.001 0.004c-0.021-0.119-0.079-0.24-0.173-0.361l-0.649-0.838 0.216-0.167 1.234 1.594-0.207 0.16-0.338-0.437 0.097 0.056c0.039 0.154 0.027 0.307-0.034 0.458-0.060 0.153-0.167 0.289-0.321 0.408zM21.552 27.014c0.174-0.087 0.351-0.126 0.529-0.118 0.178 0.012 0.341 0.066 0.49 0.163 0.15 0.1 0.27 0.239 0.359 0.417 0.090 0.181 0.13 0.36 0.119 0.537-0.011 0.183-0.071 0.349-0.167 0.489l0.002-0.003c-0.099 0.147-0.236 0.264-0.412 0.352-0.179 0.089-0.356 0.129-0.532 0.12-0.183-0.007-0.351-0.066-0.491-0.162l0.003 0.002c-0.149-0.097-0.269-0.237-0.359-0.417-0.089-0.179-0.129-0.358-0.118-0.538 0.009-0.176 0.064-0.339 0.163-0.489 0.101-0.148 0.239-0.265 0.416-0.354zM21.661 27.23c-0.131 0.065-0.232 0.151-0.304 0.259-0.068 0.103-0.11 0.229-0.113 0.365l-0 0.001c-0.006 0.137 0.026 0.276 0.096 0.416 0.071 0.142 0.163 0.251 0.275 0.326 0.1 0.072 0.224 0.118 0.357 0.126l0.002 0c0.131 0.009 0.26-0.018 0.388-0.082s0.228-0.151 0.299-0.261c0.069-0.103 0.113-0.228 0.119-0.363l0-0.001c0.007-0.135-0.025-0.274-0.096-0.416-0.070-0.14-0.162-0.248-0.275-0.326-0.102-0.071-0.227-0.117-0.362-0.127l-0.002-0c-0.010-0-0.023-0.001-0.035-0.001-0.127 0-0.247 0.031-0.352 0.087l0.004-0.002zM19.846 27.773l1.228 1.771-0.253 0.063-1.126-1.646 0.116-0.029-0.234 1.987-0.227 0.057-1.137-1.643 0.115-0.029-0.226 1.985-0.242 0.061 0.25-2.141 0.25-0.063 1.084 1.542-0.078 0.020 0.231-1.871 0.25-0.063zM15.598 28.327c0.166 0.005 0.323 0.033 0.47 0.084 0.147 0.053 0.262 0.117 0.344 0.191l-0.129 0.211c-0.080-0.064-0.183-0.121-0.31-0.171-0.119-0.046-0.256-0.074-0.399-0.078l-0.002-0c-0.192-0.006-0.331 0.019-0.417 0.075-0.086 0.059-0.131 0.138-0.134 0.238-0.002 0.074 0.020 0.132 0.068 0.175 0.045 0.045 0.105 0.079 0.181 0.102 0.076 0.025 0.161 0.047 0.255 0.066s0.188 0.039 0.282 0.063c0.092 0.023 0.175 0.055 0.251 0.096 0.076 0.043 0.137 0.1 0.183 0.171 0.044 0.071 0.064 0.163 0.060 0.279-0.002 0.111-0.040 0.212-0.102 0.294l0.001-0.001c-0.064 0.085-0.156 0.15-0.275 0.195-0.122 0.047-0.268 0.068-0.44 0.063-0.141-0.005-0.274-0.028-0.4-0.069l0.011 0.003c-0.129-0.037-0.236-0.086-0.318-0.144l0.126-0.215c0.087 0.064 0.182 0.111 0.284 0.139 0.101 0.031 0.203 0.049 0.306 0.052 0.182 0.006 0.317-0.022 0.406-0.084 0.086-0.059 0.131-0.137 0.134-0.234 0.002-0.077-0.019-0.138-0.064-0.183-0.052-0.047-0.113-0.084-0.181-0.108l-0.004-0.001c-0.067-0.023-0.153-0.045-0.241-0.063l-0.015-0.003c-0.117-0.022-0.21-0.045-0.302-0.072l0.024 0.006c-0.097-0.024-0.181-0.057-0.26-0.099l0.006 0.003c-0.076-0.037-0.139-0.093-0.182-0.161l-0.001-0.002c-0.046-0.068-0.068-0.157-0.065-0.267 0.004-0.118 0.040-0.219 0.109-0.304 0.067-0.082 0.163-0.146 0.29-0.191 0.124-0.042 0.275-0.061 0.451-0.055zM13.021 30.081c-0.16-0.033-0.294-0.093-0.402-0.181-0.108-0.084-0.188-0.2-0.227-0.333l-0.001-0.005c-0.044-0.14-0.047-0.305-0.007-0.496l0.237-1.147 0.267 0.055-0.232 1.12c-0.043 0.208-0.023 0.376 0.061 0.503 0.080 0.129 0.215 0.213 0.403 0.252 0.14 0.029 0.269 0.025 0.386-0.010 0.114-0.034 0.211-0.099 0.291-0.195 0.077-0.094 0.131-0.216 0.162-0.366l0.215-1.038 0.267 0.055-0.577 2.79-0.267-0.055 0.281-1.357 0.032 0.112c-0.090 0.127-0.217 0.222-0.365 0.271l-0.005 0.001c-0.155 0.054-0.328 0.062-0.518 0.022zM11.24 27.387c0.179 0.076 0.324 0.184 0.434 0.325 0.107 0.142 0.171 0.302 0.194 0.478 0.022 0.179-0.006 0.36-0.084 0.544-0.079 0.186-0.189 0.333-0.332 0.439-0.132 0.101-0.295 0.169-0.472 0.19l-0.005 0c-0.176 0.020-0.354-0.008-0.535-0.084-0.184-0.078-0.33-0.187-0.437-0.327-0.104-0.131-0.175-0.293-0.195-0.47l-0-0.004c-0.023-0.176 0.006-0.358 0.084-0.544 0.078-0.184 0.188-0.33 0.332-0.439 0.132-0.103 0.296-0.173 0.474-0.194l0.004-0c0.178-0.019 0.358 0.009 0.539 0.086zM11.146 27.61c-0.134-0.057-0.266-0.078-0.395-0.063-0.135 0.018-0.255 0.073-0.353 0.152l0.001-0.001c-0.108 0.085-0.193 0.199-0.254 0.343-0.062 0.146-0.085 0.287-0.070 0.421 0.013 0.133 0.059 0.252 0.138 0.354 0.078 0.105 0.183 0.186 0.315 0.241s0.263 0.075 0.393 0.058c0.136-0.016 0.256-0.069 0.356-0.148l-0.001 0.001c0.107-0.082 0.192-0.197 0.253-0.343 0.061-0.144 0.084-0.284 0.070-0.421s-0.065-0.259-0.141-0.361l0.001 0.002c-0.081-0.104-0.186-0.184-0.308-0.235l-0.005-0.002zM9.031 26.187c0.144 0.098 0.252 0.219 0.324 0.364 0.070 0.147 0.098 0.306 0.083 0.479-0.018 0.173-0.090 0.351-0.213 0.533s-0.262 0.313-0.415 0.392c-0.154 0.081-0.311 0.115-0.473 0.102s-0.315-0.070-0.461-0.169c-0.159-0.108-0.276-0.24-0.353-0.397-0.063-0.12-0.1-0.263-0.1-0.414 0-0.031 0.002-0.061 0.005-0.091l-0 0.004c0.014-0.176 0.078-0.348 0.192-0.515 0.115-0.169 0.252-0.293 0.41-0.372 0.123-0.063 0.268-0.099 0.421-0.099 0.028 0 0.056 0.001 0.084 0.004l-0.004-0c0.174 0.013 0.34 0.073 0.499 0.18zM10.301 26.17l-1.551 2.284-0.216-0.147 0.341-0.502 0.249-0.319 0.197-0.358 0.755-1.112 0.226 0.153zM8.911 26.398c-0.119-0.080-0.243-0.126-0.372-0.136-0.014-0.001-0.030-0.001-0.046-0.001-0.121 0-0.235 0.029-0.336 0.081l0.004-0.002c-0.123 0.062-0.228 0.158-0.316 0.287s-0.137 0.261-0.148 0.396c-0.002 0.020-0.003 0.043-0.003 0.067 0 0.114 0.026 0.221 0.072 0.317l-0.002-0.004c0.056 0.118 0.143 0.218 0.262 0.298 0.106 0.075 0.235 0.124 0.374 0.135l0.003 0c0.014 0.001 0.029 0.001 0.045 0.001 0.121 0 0.236-0.029 0.336-0.081l-0.004 0.002c0.119-0.061 0.223-0.157 0.31-0.286s0.139-0.262 0.154-0.397c0.002-0.020 0.003-0.043 0.003-0.066 0-0.114-0.026-0.222-0.072-0.318l0.002 0.004c-0.064-0.122-0.154-0.222-0.264-0.295l-0.003-0.002zM4.907 25.181c-0.105-0.126-0.172-0.256-0.202-0.392-0.012-0.047-0.019-0.1-0.019-0.155 0-0.091 0.019-0.177 0.052-0.255l-0.002 0.004c0.052-0.137 0.154-0.268 0.303-0.392l0.9-0.749 0.175 0.209-0.88 0.732c-0.163 0.136-0.252 0.279-0.266 0.431-0.017 0.151 0.035 0.3 0.158 0.448 0.092 0.11 0.195 0.188 0.309 0.233 0.066 0.027 0.142 0.043 0.222 0.043 0.045 0 0.089-0.005 0.132-0.015l-0.004 0.001c0.119-0.026 0.237-0.087 0.355-0.186l0.815-0.678 0.175 0.209-1.55 1.29-0.167-0.201 0.425-0.354-0.053 0.099c-0.061 0.019-0.131 0.029-0.204 0.029-0.092 0-0.18-0.017-0.261-0.048l0.005 0.002c-0.155-0.054-0.295-0.156-0.419-0.305zM5.191 21.97c0.093 0.171 0.139 0.345 0.138 0.524-0.004 0.184-0.058 0.354-0.148 0.499l0.002-0.004c-0.094 0.153-0.229 0.278-0.404 0.374-0.178 0.097-0.355 0.143-0.533 0.138-0.183-0.004-0.352-0.058-0.496-0.149l0.004 0.002c-0.15-0.093-0.273-0.226-0.367-0.399-0.096-0.175-0.143-0.351-0.14-0.527 0-0.183 0.053-0.353 0.144-0.497l-0.002 0.004c0.092-0.152 0.226-0.277 0.404-0.374 0.175-0.096 0.353-0.142 0.533-0.138 0.177 0.003 0.342 0.051 0.495 0.145 0.151 0.095 0.274 0.229 0.369 0.402zM4.979 22.086c-0.070-0.128-0.16-0.226-0.271-0.294-0.103-0.063-0.228-0.1-0.362-0.1-0.003 0-0.006 0-0.009 0h0c-0.137-0.001-0.275 0.036-0.412 0.111-0.139 0.076-0.245 0.172-0.316 0.287-0.068 0.102-0.11 0.228-0.112 0.363v0.001c-0.004 0.131 0.028 0.259 0.097 0.385s0.16 0.222 0.272 0.289c0.105 0.066 0.232 0.105 0.368 0.105h0c0.135 0.002 0.273-0.035 0.412-0.111 0.137-0.075 0.243-0.17 0.316-0.287 0.067-0.104 0.109-0.231 0.113-0.367l0-0.001c0.002-0.13-0.030-0.256-0.098-0.38zM4.367 20.3l-1.728 1.287-0.072-0.251 1.606-1.18 0.033 0.114-1.994-0.167-0.065-0.225 1.603-1.191 0.033 0.114-1.992-0.159-0.069-0.24 2.149 0.178 0.071 0.247-1.504 1.135-0.022-0.077 1.878 0.168 0.071 0.247zM3.657 16.147c0 0.006 0 0.014 0 0.021 0 0.161-0.024 0.316-0.069 0.463l0.003-0.011c-0.048 0.149-0.107 0.266-0.178 0.351l-0.216-0.121c0.061-0.082 0.114-0.188 0.159-0.316 0.043-0.128 0.063-0.263 0.062-0.404-0.002-0.192-0.032-0.33-0.092-0.414-0.062-0.084-0.143-0.126-0.243-0.125-0.074 0.001-0.132 0.025-0.172 0.074-0.043 0.046-0.075 0.108-0.095 0.185-0.022 0.077-0.041 0.163-0.055 0.258s-0.032 0.19-0.052 0.285c-0.020 0.092-0.049 0.177-0.086 0.254-0.041 0.077-0.095 0.14-0.164 0.19-0.069 0.047-0.161 0.070-0.276 0.071-0.003 0-0.006 0-0.010 0-0.107 0-0.207-0.034-0.288-0.091l0.002 0.001c-0.087-0.061-0.156-0.15-0.206-0.267-0.052-0.12-0.079-0.266-0.080-0.437 0-0.002-0-0.005-0-0.008 0-0.136 0.019-0.269 0.053-0.394l-0.002 0.010c0.032-0.131 0.076-0.239 0.132-0.324l0.22 0.117c-0.057 0.083-0.101 0.179-0.127 0.283l-0.001 0.006c-0.025 0.090-0.040 0.194-0.040 0.301 0 0.002 0 0.005 0 0.007v-0c0.002 0.182 0.035 0.316 0.099 0.403 0.062 0.084 0.142 0.125 0.239 0.125 0.077-0.001 0.137-0.024 0.18-0.070 0.045-0.053 0.080-0.116 0.101-0.185l0.001-0.004c0.022-0.080 0.041-0.166 0.055-0.258 0.015-0.095 0.033-0.189 0.055-0.281 0.020-0.095 0.048-0.181 0.086-0.258 0.035-0.080 0.087-0.143 0.156-0.189 0.066-0.049 0.154-0.074 0.264-0.075 0.118-0.001 0.22 0.032 0.308 0.098 0.085 0.063 0.152 0.158 0.202 0.283 0.047 0.122 0.071 0.272 0.073 0.449zM1.803 13.612c0.027-0.162 0.082-0.298 0.166-0.409 0.080-0.112 0.193-0.196 0.324-0.24l0.005-0.001c0.138-0.050 0.303-0.058 0.495-0.026l1.155 0.193-0.045 0.269-1.129-0.188c-0.209-0.035-0.376-0.008-0.5 0.080-0.126 0.085-0.205 0.223-0.236 0.412-0.024 0.141-0.015 0.27 0.025 0.386 0.038 0.113 0.107 0.207 0.206 0.283 0.097 0.073 0.221 0.122 0.372 0.148l1.045 0.174-0.045 0.269-2.81-0.468 0.045-0.269 1.367 0.228-0.111 0.036c-0.131-0.085-0.231-0.209-0.285-0.354l-0.002-0.005c-0.060-0.153-0.074-0.325-0.042-0.517zM4.423 11.727c-0.069 0.182-0.172 0.331-0.309 0.446-0.13 0.107-0.29 0.181-0.465 0.211l-0.006 0.001c-0.178 0.028-0.36 0.007-0.547-0.064-0.189-0.072-0.339-0.177-0.451-0.315-0.106-0.129-0.18-0.289-0.207-0.463l-0.001-0.005c-0.027-0.175-0.005-0.354 0.065-0.538 0.071-0.187 0.174-0.336 0.31-0.449 0.128-0.109 0.287-0.185 0.462-0.212l0.005-0.001c0.175-0.029 0.358-0.008 0.547 0.064 0.187 0.071 0.337 0.176 0.451 0.315 0.113 0.136 0.183 0.292 0.211 0.47 0.026 0.177 0.004 0.358-0.066 0.542zM4.197 11.642c0.052-0.137 0.068-0.269 0.048-0.397-0.023-0.134-0.082-0.251-0.165-0.346l0.001 0.001c-0.089-0.105-0.207-0.185-0.352-0.24-0.148-0.056-0.289-0.074-0.423-0.054-0.134 0.017-0.254 0.072-0.35 0.152l0.001-0.001c-0.102 0.082-0.179 0.19-0.23 0.324s-0.065 0.266-0.043 0.394c0.020 0.128 0.073 0.244 0.16 0.348s0.204 0.184 0.352 0.241c0.146 0.055 0.287 0.073 0.423 0.054s0.256-0.075 0.356-0.154l-0.001 0.001c0.1-0.083 0.175-0.19 0.225-0.321zM5.537 9.47c-0.092 0.147-0.21 0.26-0.352 0.337-0.122 0.065-0.266 0.103-0.42 0.103-0.020 0-0.039-0.001-0.059-0.002l0.003 0c-0.174-0.012-0.354-0.076-0.541-0.193s-0.322-0.25-0.407-0.4c-0.087-0.151-0.126-0.307-0.119-0.468s0.058-0.317 0.152-0.467c0.102-0.163 0.23-0.285 0.384-0.367 0.128-0.073 0.281-0.116 0.444-0.116 0.019 0 0.038 0.001 0.056 0.002l-0.003-0c0.176 0.008 0.351 0.065 0.522 0.172 0.173 0.109 0.302 0.24 0.386 0.396s0.122 0.321 0.114 0.497c-0.006 0.174-0.061 0.343-0.163 0.505zM5.6 10.737l-2.341-1.464 0.139-0.221 0.514 0.322 0.328 0.237 0.365 0.183 1.139 0.713-0.145 0.231zM5.322 9.358c0.076-0.122 0.117-0.247 0.122-0.376 0-0.006 0-0.012 0-0.019 0-0.13-0.034-0.253-0.094-0.359l0.002 0.004c-0.067-0.12-0.166-0.222-0.299-0.304s-0.266-0.127-0.401-0.133c-0.012-0.001-0.026-0.001-0.040-0.001-0.123 0-0.24 0.030-0.342 0.084l0.004-0.002c-0.116 0.060-0.212 0.151-0.289 0.273-0.071 0.108-0.115 0.239-0.121 0.38l-0 0.002c-0 0.006-0 0.012-0 0.019 0 0.13 0.034 0.253 0.094 0.359l-0.002-0.004c0.066 0.117 0.165 0.217 0.297 0.299s0.267 0.129 0.403 0.139c0.012 0.001 0.025 0.001 0.039 0.001 0.123 0 0.24-0.030 0.342-0.084l-0.004 0.002c0.115-0.064 0.211-0.156 0.287-0.278zM6.393 5.304c0.122-0.109 0.25-0.181 0.384-0.215 0.053-0.016 0.115-0.025 0.178-0.025 0.082 0 0.161 0.015 0.234 0.043l-0.004-0.002c0.139 0.047 0.274 0.144 0.403 0.288l0.782 0.872-0.203 0.182-0.764-0.852c-0.142-0.158-0.289-0.242-0.441-0.25-0.152-0.012-0.299 0.046-0.442 0.174-0.107 0.096-0.181 0.201-0.221 0.317-0.022 0.060-0.035 0.129-0.035 0.201 0 0.053 0.007 0.104 0.020 0.153l-0.001-0.004c0.030 0.117 0.096 0.233 0.198 0.348l0.708 0.789-0.203 0.182-1.347-1.5 0.195-0.174 0.369 0.412-0.101-0.049c-0.024-0.068-0.037-0.147-0.037-0.229s0.014-0.162 0.039-0.236l-0.002 0.005c0.048-0.157 0.145-0.3 0.29-0.43zM9.593 5.478c-0.167 0.099-0.34 0.152-0.519 0.157-0.004 0-0.009 0-0.013 0-0.179 0-0.347-0.047-0.492-0.129l0.005 0.003c-0.157-0.088-0.287-0.218-0.389-0.39-0.103-0.174-0.156-0.349-0.158-0.527-0-0.004-0-0.010-0-0.015 0-0.177 0.048-0.344 0.131-0.487l-0.002 0.005c0.087-0.153 0.216-0.28 0.385-0.381 0.172-0.102 0.346-0.155 0.522-0.159 0.010-0 0.021-0.001 0.033-0.001 0.171 0 0.332 0.046 0.47 0.127l-0.004-0.002c0.156 0.086 0.285 0.216 0.389 0.39 0.102 0.172 0.155 0.347 0.158 0.527 0 0.007 0 0.015 0 0.023 0 0.175-0.047 0.34-0.129 0.481l0.002-0.005c-0.090 0.155-0.219 0.282-0.388 0.383zM9.469 5.27c0.125-0.075 0.22-0.168 0.284-0.281 0.063-0.115 0.092-0.239 0.086-0.373-0.004-0.137-0.046-0.273-0.127-0.407-0.081-0.136-0.181-0.238-0.298-0.305-0.101-0.062-0.223-0.099-0.353-0.099-0.005 0-0.010 0-0.015 0h0.001c-0.131 0-0.258 0.037-0.381 0.111s-0.216 0.167-0.279 0.282c-0.058 0.1-0.092 0.22-0.092 0.348 0 0.008 0 0.017 0 0.025l-0-0.001c0.003 0.135 0.045 0.271 0.127 0.407 0.080 0.134 0.179 0.236 0.298 0.305 0.117 0.067 0.242 0.1 0.372 0.1 0.14-0.004 0.269-0.045 0.379-0.114l-0.003 0.002zM11.223 4.586l-1.353-1.678 0.248-0.082 1.241 1.561-0.113 0.037 0.090-1.998 0.223-0.073 1.252 1.557-0.113 0.037 0.083-1.996 0.237-0.078-0.096 2.153-0.244 0.080-1.192-1.46 0.077-0.025-0.096 1.883-0.244 0.080zM15.392 3.708c-0.023 0.001-0.049 0.002-0.076 0.002-0.142 0-0.279-0.019-0.41-0.053l0.011 0.002c-0.15-0.042-0.269-0.098-0.357-0.166l0.114-0.22c0.084 0.058 0.192 0.107 0.322 0.148 0.104 0.031 0.223 0.049 0.347 0.049 0.021 0 0.041-0.001 0.061-0.001l-0.003 0c0.192-0.008 0.329-0.043 0.411-0.106 0.082-0.065 0.121-0.147 0.116-0.247-0.003-0.074-0.030-0.131-0.080-0.17-0.048-0.041-0.111-0.071-0.188-0.088-0.072-0.019-0.16-0.035-0.25-0.046l-0.009-0.001c-0.125-0.015-0.223-0.030-0.32-0.047l0.033 0.005c-0.097-0.017-0.183-0.044-0.264-0.080l0.007 0.003c-0.078-0.037-0.144-0.091-0.194-0.156l-0.001-0.001c-0.049-0.067-0.076-0.158-0.081-0.273-0-0.008-0.001-0.018-0.001-0.027 0-0.101 0.030-0.195 0.082-0.274l-0.001 0.002c0.058-0.090 0.144-0.161 0.26-0.215 0.118-0.056 0.263-0.088 0.434-0.095 0.018-0.001 0.039-0.001 0.060-0.001 0.118 0 0.234 0.014 0.344 0.040l-0.010-0.002c0.132 0.028 0.241 0.068 0.328 0.121l-0.11 0.224c-0.084-0.054-0.182-0.095-0.288-0.117l-0.006-0.001c-0.079-0.019-0.169-0.030-0.262-0.030-0.016 0-0.033 0-0.049 0.001l0.002-0c-0.182 0.008-0.315 0.045-0.399 0.113-0.082 0.065-0.121 0.146-0.116 0.243 0.003 0.077 0.029 0.136 0.077 0.177 0.050 0.041 0.114 0.073 0.192 0.096 0.080 0.020 0.167 0.035 0.259 0.047 0.095 0.011 0.19 0.026 0.283 0.046 0.095 0.016 0.182 0.042 0.261 0.077 0.081 0.032 0.146 0.082 0.195 0.149 0.051 0.065 0.079 0.152 0.084 0.262 0.005 0.118-0.024 0.221-0.087 0.311-0.060 0.087-0.152 0.158-0.275 0.212-0.121 0.051-0.269 0.081-0.446 0.088zM17.879 1.762c0.163 0.021 0.301 0.072 0.414 0.151 0.116 0.077 0.201 0.184 0.252 0.32 0.054 0.137 0.069 0.301 0.043 0.494l-0.153 1.161-0.27-0.036 0.15-1.135c0.028-0.211-0.004-0.376-0.097-0.497-0.090-0.123-0.23-0.197-0.42-0.222-0.142-0.019-0.27-0.006-0.384 0.038s-0.208 0.119-0.275 0.214l-0.001 0.002c-0.070 0.099-0.115 0.225-0.135 0.378l-0.139 1.050-0.27-0.035 0.373-2.825 0.27 0.036-0.181 1.374-0.040-0.11c0.081-0.134 0.201-0.238 0.344-0.297l0.005-0.002c0.151-0.065 0.322-0.085 0.515-0.060zM19.892 4.322c-0.184-0.063-0.336-0.161-0.456-0.293-0.111-0.127-0.191-0.283-0.226-0.457l-0.001-0.006c-0.034-0.177-0.019-0.359 0.045-0.548 0.065-0.191 0.165-0.345 0.3-0.462 0.126-0.111 0.283-0.19 0.456-0.223l0.006-0.001c0.173-0.033 0.354-0.017 0.54 0.046 0.189 0.064 0.342 0.163 0.459 0.294 0.114 0.124 0.195 0.28 0.228 0.454l0.001 0.006c0.035 0.174 0.020 0.357-0.045 0.548-0.065 0.189-0.164 0.343-0.3 0.462-0.126 0.113-0.283 0.193-0.457 0.227l-0.006 0.001c-0.176 0.032-0.357 0.016-0.544-0.048zM19.97 4.093c0.138 0.047 0.271 0.058 0.398 0.034 0.128-0.026 0.241-0.085 0.34-0.176 0.102-0.092 0.178-0.212 0.228-0.36 0.051-0.15 0.064-0.292 0.040-0.425-0.022-0.133-0.080-0.25-0.163-0.344l0.001 0.001c-0.085-0.099-0.195-0.172-0.331-0.218s-0.268-0.056-0.396-0.029c-0.133 0.026-0.25 0.087-0.343 0.172l0.001-0.001c-0.101 0.090-0.177 0.21-0.228 0.36-0.051 0.148-0.064 0.289-0.040 0.425 0.025 0.133 0.080 0.249 0.165 0.349 0.086 0.097 0.195 0.168 0.329 0.213zM22.13 5.325c-0.151-0.087-0.268-0.2-0.35-0.339-0.075-0.129-0.119-0.283-0.119-0.448 0-0.008 0-0.016 0-0.024l-0 0.001c0.006-0.174 0.064-0.356 0.173-0.547s0.238-0.331 0.385-0.421c0.148-0.092 0.302-0.138 0.464-0.136s0.319 0.046 0.472 0.134c0.166 0.096 0.293 0.219 0.381 0.37 0.091 0.15 0.135 0.314 0.132 0.493-0.001 0.176-0.052 0.352-0.153 0.527-0.102 0.178-0.229 0.311-0.382 0.401-0.138 0.083-0.304 0.133-0.482 0.133-0.004 0-0.008-0-0.012-0h0.001c-0.174 0-0.345-0.048-0.511-0.143zM20.866 5.435l1.379-2.392 0.226 0.13-0.303 0.526-0.225 0.336-0.17 0.372-0.671 1.165-0.236-0.136zM22.234 5.106c0.124 0.071 0.251 0.108 0.381 0.108 0.137-0.002 0.265-0.041 0.374-0.107l-0.003 0.002c0.118-0.071 0.216-0.174 0.294-0.31s0.118-0.271 0.119-0.406c0-0.004 0-0.008 0-0.013 0-0.133-0.035-0.257-0.097-0.365l0.002 0.004c-0.064-0.114-0.159-0.207-0.283-0.278-0.11-0.067-0.244-0.106-0.386-0.107h-0c-0.137 0.002-0.265 0.041-0.374 0.107l0.003-0.002c-0.114 0.070-0.211 0.173-0.288 0.308s-0.119 0.271-0.124 0.407c-0 0.004-0 0.008-0 0.012 0 0.133 0.035 0.257 0.097 0.365l-0.002-0.004c0.068 0.113 0.164 0.205 0.288 0.277zM26.349 6.035c0.114 0.118 0.19 0.243 0.23 0.376 0.020 0.060 0.032 0.129 0.032 0.201 0 0.074-0.012 0.145-0.035 0.211l0.001-0.005c-0.042 0.14-0.134 0.278-0.274 0.413l-0.844 0.813-0.189-0.196 0.824-0.794c0.153-0.147 0.231-0.297 0.234-0.449 0.006-0.152-0.057-0.297-0.191-0.435-0.1-0.103-0.208-0.173-0.325-0.21-0.054-0.018-0.116-0.028-0.181-0.028-0.060 0-0.119 0.009-0.174 0.026l0.004-0.001c-0.116 0.034-0.23 0.105-0.341 0.211l-0.763 0.735-0.189-0.196 1.452-1.399 0.181 0.188-0.398 0.384 0.045-0.102c0.075-0.029 0.163-0.046 0.254-0.046 0.073 0 0.144 0.011 0.211 0.031l-0.005-0.001c0.159 0.043 0.305 0.134 0.441 0.274zM26.339 9.304c-0.105-0.164-0.163-0.335-0.174-0.513-0.001-0.014-0.001-0.030-0.001-0.046 0-0.167 0.041-0.325 0.114-0.463l-0.003 0.005c0.083-0.16 0.209-0.293 0.377-0.401 0.17-0.109 0.344-0.167 0.522-0.175 0.014-0.001 0.030-0.001 0.046-0.001 0.166 0 0.323 0.042 0.46 0.116l-0.005-0.003c0.156 0.082 0.288 0.207 0.394 0.372 0.108 0.168 0.167 0.34 0.176 0.516 0.001 0.019 0.002 0.042 0.002 0.064 0 0.16-0.040 0.311-0.112 0.442l0.002-0.005c-0.081 0.158-0.206 0.292-0.377 0.401-0.168 0.108-0.342 0.166-0.522 0.175-0.016 0.001-0.035 0.002-0.054 0.002-0.165 0-0.32-0.041-0.455-0.114l0.005 0.003c-0.158-0.084-0.29-0.21-0.396-0.375zM26.543 9.174c0.079 0.123 0.176 0.214 0.29 0.274 0.093 0.048 0.203 0.076 0.319 0.076 0.020 0 0.040-0.001 0.059-0.002l-0.003 0c0.137-0.009 0.272-0.055 0.403-0.14 0.134-0.086 0.232-0.188 0.295-0.308 0.065-0.117 0.093-0.241 0.086-0.37-0.005-0.131-0.046-0.256-0.123-0.377s-0.175-0.21-0.292-0.269c-0.095-0.051-0.208-0.081-0.328-0.081-0.017 0-0.033 0.001-0.049 0.002l0.002-0c-0.135 0.007-0.269 0.054-0.403 0.14-0.132 0.084-0.23 0.187-0.295 0.308-0.055 0.101-0.088 0.221-0.088 0.349 0 0.009 0 0.019 0.001 0.028l-0-0.001c0.009 0.139 0.054 0.267 0.126 0.374l-0.002-0.003zM27.278 10.903l1.631-1.407 0.090 0.245-1.518 1.292-0.041-0.112 2.001 0.023 0.081 0.22-1.514 1.303-0.041-0.112 1.998 0.016 0.086 0.234-2.156-0.024-0.089-0.242 1.419-1.239 0.028 0.076-1.886-0.033-0.089-0.242z"></path>
</symbol>
<symbol id="icon-facebook" viewBox="0 0 32 32">
<path d="M24 2.666h-4c-3.682 0-6.666 2.985-6.666 6.666 0 0 0 0.001 0 0.001v-0 4h-4v5.333h4v10.667h5.334v-10.667h4l1.333-5.333h-5.333v-4c0-0.736 0.596-1.333 1.332-1.334h4v-5.334z"></path>
</symbol>
<symbol id="icon-instagram" viewBox="0 0 32 32">
<path d="M22.666 2.666h-13.334c-3.682 0-6.666 2.985-6.666 6.666 0 0 0 0.001 0 0.001v-0 13.333c0 0 0 0.001 0 0.001 0 3.682 2.985 6.666 6.666 6.666h13.334c3.682 0 6.666-2.985 6.666-6.666 0-0 0-0.001 0-0.001v0-13.333c0-0 0-0.001 0-0.001 0-3.682-2.985-6.666-6.666-6.666v0z"></path>
<path d="M21.334 15.16c0.037 0.235 0.058 0.506 0.058 0.782 0 2.946-2.388 5.334-5.334 5.334-2.67 0-4.882-1.962-5.273-4.522l-0.004-0.030c-0.037-0.235-0.058-0.506-0.058-0.782 0-2.946 2.388-5.334 5.334-5.334 2.67 0 4.882 1.962 5.273 4.522l0.004 0.030zM23.334 8.666h0.013"></path>
</symbol>
<symbol id="icon-logo" viewBox="0 0 40 32">
<path d="M16.463 31.448v-5.12l-0.132-0.839v-8.563c0-1.971-0.559-3.487-1.677-4.546-1.089-1.059-2.722-1.589-4.899-1.589-1.501 0-2.928 0.25-4.281 0.75s-2.501 1.162-3.443 1.986l-1.412-2.339c1.177-1 2.589-1.766 4.237-2.295 1.648-0.559 3.384-0.839 5.208-0.839 3.001 0 5.311 0.75 6.93 2.251 1.648 1.471 2.472 3.722 2.472 6.753v14.389h-3.001zM8.474 31.669c-1.736 0-3.251-0.28-4.546-0.839-1.265-0.589-2.236-1.383-2.913-2.383-0.677-1.030-1.015-2.207-1.015-3.531 0-1.207 0.28-2.295 0.839-3.266 0.589-1 1.53-1.795 2.825-2.383 1.324-0.618 3.090-0.927 5.297-0.927h7.989v2.339h-7.901c-2.236 0-3.796 0.397-4.679 1.192-0.854 0.794-1.28 1.78-1.28 2.957 0 1.324 0.515 2.383 1.545 3.178s2.472 1.192 4.326 1.192c1.766 0 3.281-0.397 4.546-1.192 1.295-0.824 2.236-2.001 2.825-3.531l0.706 2.163c-0.589 1.53-1.618 2.751-3.090 3.663-1.442 0.912-3.266 1.368-5.473 1.368z"></path>
<path d="M29.44 31.669c-2.413 0-4.532-0.5-6.356-1.501-1.825-1.030-3.252-2.428-4.281-4.193-1.030-1.795-1.545-3.84-1.545-6.135s0.486-4.326 1.457-6.091c1-1.766 2.354-3.149 4.061-4.149 1.736-1.030 3.678-1.545 5.826-1.545 2.177 0 4.105 0.5 5.782 1.501 1.706 0.971 3.046 2.354 4.017 4.149 0.971 1.766 1.457 3.811 1.457 6.135 0 0.147-0.015 0.309-0.044 0.486v0.486h-20.171v-2.339h18.494l-1.236 0.927c0-1.677-0.368-3.163-1.103-4.458-0.706-1.324-1.677-2.354-2.913-3.090s-2.663-1.103-4.281-1.103c-1.589 0-3.016 0.368-4.281 1.103s-2.251 1.766-2.957 3.090-1.059 2.84-1.059 4.546v0.486c0 1.766 0.382 3.325 1.148 4.679 0.794 1.324 1.883 2.369 3.266 3.134 1.412 0.735 3.016 1.103 4.811 1.103 1.412 0 2.722-0.25 3.928-0.75 1.236-0.5 2.295-1.265 3.178-2.295l1.766 2.030c-1.030 1.236-2.325 2.178-3.884 2.825-1.53 0.647-3.222 0.971-5.076 0.971z"></path>
<path d="M37.297 3.31h-15.448v-3.31h15.448v3.31z"></path>
</symbol>
<symbol id="icon-plants" viewBox="0 0 42 32">
<path fill="#f58b3d" style="fill: var(--color1, #f58b3d)" opacity="0.25453134912100006" d="M38.92 25.599c0.539 3.691-12.54 6.099-23.798 4.419s-16.423-8.242-11.050-11.738c5.372-3.496 34.309 3.628 34.849 7.319z"></path>
<path fill="#f58b3d" style="fill: var(--color1, #f58b3d)" d="M22.74 10.218c0.204-0.142 0.519-0.052 0.724 0.032 0.079 0.032 0.281 0.136 0.43 0.253-0.020-0.081-0.037-0.162-0.053-0.245-0.063-0.338-0.107-0.682-0.128-1.025-0.005-0.089 0.002-0.189 0.009-0.29v-0c0.002-0.034 0.005-0.069 0.007-0.103-0.008-0.008-0.014-0.019-0.016-0.034-0.001 0.006-0.001 0.011-0.002 0.015-0.001 0.006-0.001 0.009-0.002 0.010s-0.003-0.002-0.007-0.008c-0.001-0.002-0.003-0.005-0.005-0.007-0.151-0.207-0.279-0.441-0.296-0.698-0.015-0.218 0.181-0.63 0.458-0.344 0.124 0.127 0.092 1.022-0.094 1.077 0.050 0.296 0.112 0.592 0.191 0.884 0.012-0.002 0.024-0.002 0.035-0.001-0.001-0.073-0.001-0.152 0.002-0.179 0.028-0.235 0.242-0.711 0.583-0.619 0.262 0.071 0.101 0.364 0.012 0.492-0.144 0.206-0.306 0.296-0.512 0.403-0.004 0.044-0.035 0.070-0.072 0.079 0.138 0.472 0.319 0.932 0.556 1.367l0.006-0.028c0.030-0.132 0.065-0.286 0.087-0.318 0.116-0.169 0.373-0.376 0.61-0.276 0.498 0.21-0.042 0.815-0.466 0.881-0.018 0.022-0.036 0.040-0.056 0.050 0.082 0.131 0.17 0.26 0.264 0.385 0.141 0.188 0.293 0.376 0.452 0.563 0.005-0.146 0.068-0.471 0.086-0.506 0.109-0.212 0.422-0.431 0.676-0.28 0.286 0.17 0.027 0.491-0.136 0.637-0.067 0.060-0.397 0.278-0.514 0.279 0.384 0.44 0.808 0.872 1.24 1.289-0.036-0.187-0.082-0.7-0.077-0.757 0.027-0.294 0.238-0.765 0.654-0.65 0.404 0.111 0.225 0.6 0.087 0.833-0.084 0.141-0.199 0.284-0.339 0.383-0.025 0.018-0.058 0.032-0.091 0.047-0.040 0.017-0.079 0.035-0.105 0.058-0.023 0.021-0.030 0.044-0.037 0.067-0.007 0.025-0.015 0.049-0.041 0.070 0.233 0.224 0.468 0.444 0.699 0.657 0.109 0.101 0.22 0.2 0.332 0.297 0.061-0.023 0.149 0.007 0.144 0.087-0.001 0.012-0.003 0.022-0.007 0.031 0.085 0.072 0.171 0.144 0.257 0.216-0.002-0.021-0.001-0.050 0.003-0.090-0.062 0.081-0.060-0.037-0.058-0.127 0.001-0.032 0.001-0.060-0.001-0.075-0.009-0.058-0.021-0.115-0.033-0.172-0.025-0.122-0.050-0.243-0.049-0.369 0.003-0.267 0.187-0.715 0.576-0.556 0.357 0.146 0.227 0.542 0.093 0.79-0.085 0.157-0.202 0.297-0.324 0.431-0.022 0.024-0.046 0.056-0.070 0.089-0.036 0.048-0.070 0.095-0.096 0.112 0.332 0.272 0.672 0.537 1.011 0.801l0 0c0.152 0.118 0.304 0.237 0.455 0.356 0.007-0.026 0.012-0.052 0.017-0.076-0.009 0.010-0.022 0.014-0.039 0.013-0.004-0.020-0.011-0.047-0.019-0.079-0.093-0.39-0.378-1.58 0.393-1.349 0.565 0.169 0.166 1.205-0.255 1.567 0.256 0.202 0.509 0.407 0.757 0.618 0.179 0.153 0.353 0.311 0.52 0.474-0.087-0.211-0.168-0.485-0.114-0.702 0.078-0.317 0.443-0.616 0.799-0.436 0.444 0.226 0.102 0.534-0.218 0.823-0.163 0.148-0.322 0.29-0.367 0.414 0.531 0.535 0.985 1.13 1.288 1.807 0.33 0.736 0.636 1.726 0.466 2.55 0.031-0.362-0.102-0.817-0.196-1.137-0.013-0.043-0.025-0.084-0.036-0.122-0.141-0.496-0.341-0.978-0.605-1.429-0.423-0.723-0.982-1.336-1.626-1.893-0.147 0.047-0.306 0.134-0.439 0.205-0.081 0.044-0.152 0.083-0.203 0.103-0.247 0.097-0.72 0.237-0.878-0.070-0.155-0.302 0.24-0.471 0.484-0.539 0.236-0.065 0.449-0.058 0.67-0.004-0.341-0.277-0.691-0.546-1.040-0.814l-0-0c-0.064-0.049-0.128-0.099-0.193-0.148-0.089 0.067-0.187 0.163-0.291 0.266-0.331 0.325-0.723 0.71-1.073 0.396-0.528-0.475 0.482-0.958 0.912-0.92 0.053 0.005 0.104 0.015 0.154 0.029-0.439-0.341-0.871-0.69-1.28-1.062-0.073 0.012-0.19 0.111-0.33 0.23-0.315 0.267-0.749 0.634-1.076 0.345-0.236-0.209-0.155-0.534 0.073-0.72s0.561-0.186 0.843-0.124c0.122 0.027 0.234 0.079 0.339 0.142 0.004 0 0.009 0 0.013 0.001-0.402-0.371-0.807-0.75-1.196-1.142-0.007 0.002-0.014 0.004-0.021 0.006-0.024 0.026-0.063 0.036-0.099 0.030-0.020 0.006-0.040 0.013-0.061 0.019-0.309 0.098-0.705 0.223-1.013 0.169-0.226-0.040-0.432-0.208-0.24-0.416 0.156-0.169 0.579-0.145 0.785-0.105 0.101 0.020 0.21 0.076 0.32 0.133 0.046 0.024 0.093 0.048 0.138 0.069 0.012-0.022 0.033-0.036 0.056-0.043-0.385-0.394-0.752-0.801-1.085-1.227-0.101 0.014-0.213 0.055-0.328 0.097-0.277 0.101-0.575 0.209-0.789-0.024-0.316-0.344 0.278-0.544 0.56-0.511 0.095 0.011 0.189 0.036 0.28 0.068-0.242-0.35-0.428-0.724-0.557-1.117-0.001 0.001-0.002 0.001-0.004 0.002v0c-0.002 0.001-0.004 0.002-0.006 0.003 0.002-0.001 0.004-0.002 0.005-0.003s0.003-0.002 0.004-0.002c-0.013-0.039-0.025-0.079-0.037-0.118-0.022-0.011-0.043-0.020-0.052-0.023 0.128 0.081-0.413 0.121-0.514 0.128-0.224 0.016-0.524 0.023-0.688-0.146-0.138-0.141-0.13-0.35 0.039-0.468zM33.045 22.106c-0.010 0.119-0.033 0.229-0.077 0.319 0.033-0.103 0.058-0.209 0.077-0.319z"></path>
<path fill="#f1f447" style="fill: var(--color2, #f1f447)" opacity="0.2" d="M12.577 2.591c-0.149-0.103-0.379-0.037-0.529 0.024-0.058 0.023-0.205 0.098-0.314 0.183 0.014-0.058 0.027-0.117 0.039-0.177 0.046-0.244 0.078-0.494 0.094-0.741 0.004-0.065-0.001-0.137-0.006-0.21v-0c-0.002-0.025-0.004-0.050-0.005-0.074 0.006-0.006 0.010-0.014 0.012-0.025 0.001 0.005 0.001 0.008 0.001 0.011 0 0.004 0.001 0.007 0.001 0.007s0.002-0.002 0.005-0.006c0.001-0.002 0.002-0.003 0.004-0.005 0.111-0.15 0.204-0.319 0.216-0.504 0.011-0.157-0.132-0.455-0.334-0.249-0.091 0.092-0.067 0.739 0.069 0.779-0.036 0.214-0.082 0.428-0.139 0.64-0.009-0.001-0.017-0.002-0.026-0 0.001-0.053 0.001-0.11-0.001-0.13-0.020-0.17-0.177-0.514-0.426-0.447-0.191 0.052-0.074 0.263-0.009 0.356 0.105 0.149 0.223 0.214 0.373 0.291 0.003 0.032 0.026 0.051 0.053 0.057-0.101 0.341-0.233 0.674-0.406 0.988l-0.005-0.020c-0.022-0.095-0.047-0.207-0.064-0.23-0.085-0.122-0.272-0.271-0.445-0.199-0.363 0.152 0.031 0.589 0.34 0.637 0.013 0.016 0.026 0.029 0.041 0.036-0.060 0.095-0.124 0.188-0.193 0.278-0.103 0.136-0.214 0.272-0.33 0.407-0.004-0.106-0.049-0.341-0.062-0.366-0.079-0.153-0.308-0.311-0.493-0.202-0.209 0.123-0.020 0.355 0.099 0.46 0.049 0.043 0.29 0.201 0.375 0.202-0.281 0.318-0.591 0.631-0.906 0.933 0.026-0.135 0.060-0.506 0.057-0.548-0.019-0.213-0.174-0.553-0.477-0.47-0.295 0.080-0.165 0.434-0.064 0.603 0.061 0.102 0.146 0.206 0.248 0.277 0.018 0.013 0.042 0.023 0.066 0.034 0.029 0.013 0.058 0.025 0.077 0.042 0.017 0.015 0.022 0.032 0.027 0.049s0.011 0.035 0.030 0.050c-0.17 0.162-0.342 0.321-0.511 0.476-0.080 0.073-0.161 0.144-0.243 0.215-0.045-0.017-0.109 0.005-0.105 0.063 0 0.008 0.003 0.016 0.005 0.022-0.062 0.052-0.125 0.104-0.188 0.156 0.001-0.015 0.001-0.036-0.002-0.065 0.045 0.058 0.043-0.027 0.042-0.092-0-0.023-0.001-0.043 0.001-0.054 0.007-0.042 0.015-0.083 0.024-0.124 0.018-0.088 0.037-0.176 0.036-0.267-0.002-0.193-0.136-0.517-0.42-0.402-0.261 0.106-0.166 0.392-0.068 0.571 0.062 0.114 0.147 0.215 0.236 0.312 0.016 0.017 0.034 0.041 0.051 0.064 0.026 0.035 0.051 0.068 0.070 0.081-0.242 0.197-0.49 0.388-0.738 0.58l-0 0c-0.111 0.086-0.222 0.171-0.333 0.258-0.005-0.019-0.009-0.038-0.012-0.055 0.007 0.007 0.016 0.010 0.028 0.010 0.003-0.014 0.008-0.034 0.013-0.057 0.068-0.282 0.277-1.143-0.286-0.976-0.413 0.123-0.122 0.871 0.186 1.133-0.187 0.146-0.372 0.295-0.553 0.447-0.131 0.11-0.258 0.225-0.38 0.343 0.063-0.153 0.123-0.351 0.084-0.508-0.057-0.229-0.323-0.445-0.583-0.315-0.324 0.163-0.075 0.386 0.159 0.595 0.119 0.107 0.235 0.21 0.268 0.299-0.388 0.387-0.72 0.817-0.941 1.307-0.241 0.533-0.465 1.248-0.342 1.844-0.023-0.262 0.075-0.591 0.144-0.822 0.009-0.031 0.018-0.061 0.026-0.089 0.103-0.358 0.25-0.707 0.443-1.033 0.309-0.523 0.717-0.967 1.188-1.37 0.107 0.034 0.224 0.097 0.32 0.148 0.059 0.032 0.111 0.060 0.148 0.074 0.18 0.070 0.526 0.171 0.641-0.051 0.113-0.218-0.175-0.341-0.354-0.389-0.172-0.047-0.328-0.041-0.489-0.003 0.249-0.201 0.505-0.395 0.76-0.589 0.047-0.036 0.094-0.071 0.141-0.107 0.065 0.048 0.137 0.118 0.213 0.192 0.241 0.235 0.527 0.513 0.783 0.286 0.386-0.344-0.351-0.692-0.666-0.665-0.039 0.003-0.076 0.011-0.112 0.021 0.321-0.247 0.636-0.499 0.935-0.769 0.054 0.009 0.139 0.080 0.241 0.166h0c0.23 0.193 0.547 0.458 0.785 0.249 0.172-0.151 0.114-0.386-0.053-0.521s-0.409-0.135-0.615-0.089c-0.089 0.020-0.171 0.057-0.248 0.103-0.003 0-0.006 0-0.010 0 0.294-0.268 0.589-0.542 0.874-0.826 0.005 0.001 0.010 0.003 0.015 0.004 0.017 0.019 0.046 0.026 0.072 0.022 0.014 0.004 0.029 0.009 0.044 0.014l0 0c0.225 0.070 0.515 0.161 0.74 0.122 0.165-0.029 0.315-0.151 0.176-0.301-0.114-0.122-0.422-0.104-0.573-0.075-0.073 0.014-0.153 0.055-0.234 0.096-0.034 0.017-0.068 0.035-0.101 0.050-0.009-0.016-0.024-0.026-0.041-0.031 0.281-0.285 0.549-0.58 0.793-0.887 0.074 0.010 0.155 0.040 0.239 0.070 0.203 0.073 0.42 0.151 0.576-0.018 0.23-0.249-0.203-0.393-0.409-0.37-0.070 0.008-0.138 0.026-0.204 0.050 0.177-0.253 0.312-0.524 0.407-0.808 0.001 0 0.002 0.001 0.003 0.001s0.003 0.001 0.004 0.002c-0.001-0.001-0.003-0.001-0.004-0.002s-0.002-0.001-0.003-0.002c0.009-0.028 0.019-0.057 0.027-0.086 0.016-0.008 0.031-0.014 0.038-0.017-0.094 0.059 0.301 0.087 0.375 0.092 0.163 0.012 0.382 0.016 0.502-0.105 0.101-0.102 0.095-0.253-0.028-0.338zM5.041 11.167c0.007 0.080 0.029 0.152 0.071 0.212-0.031-0.068-0.054-0.139-0.071-0.212z"></path>
<path fill="#b45661" style="fill: var(--color3, #b45661)" opacity="0.48999999999999994" d="M28.63 16.63c0.801-0.038 1.792 0.39 1.878 1.187 0.062 0.579 0.043 1.156 0.139 1.735 0.077 0.462 0.239 0.906 0.461 1.326 0.213 0.405 0.655 0.749 0.77 1.182 0.073 0.276 0.032 0.663-0.069 0.933-0.123 0.328-0.058 0.302 0.187 0.577 0.48 0.539 0.912 1.091 1.218 1.735 0.44 0.927 0.729 2.010 0.565 3.025-0.021 0.129-0.045 0.591-0.239 0.623-0.217 0.036-0.115-0.228-0.104-0.314 0.074-0.545 0.139-1.021 0.050-1.575-0.343-2.136-2.017-3.543-3.108-5.355-0.060-0.093-0.186-0.316-0.275-0.463-0.139-0.232-0.279-0.673-0.467-0.845-0.354-0.324-0.029 0.327 0.040 0.451 0.087 0.157 0.183 0.324 0.273 0.462 0.409 0.639 0.866 1.336 1.288 1.994-1.827 0.381-3.114-1.629-3.604-2.95-0.404-1.089-0.887-3.634 0.995-3.727z"></path>
<path fill="#e7502f" style="fill: var(--color4, #e7502f)" opacity="0.48999999999999994" d="M39.369 14.608c-1.339 0.097-2.199 0.906-2.599 2.037-0.216 0.609-0.24 1.236-0.36 1.862-0.18 0.942-0.568 1.657-1.327 2.328-0.235 0.208-0.408 0.421-0.531 0.65-0.244 0.228-0.457 0.486-0.613 0.802-0.199 0.403-0.256 0.886-0.026 1.288 0.062 0.108 0.217 0.325 0.377 0.423-0.6 1.168-0.929 2.448-0.892 3.726 0.023 0.771 0.064 1.543 0.112 2.314 0.013 0.207 0.087 0.549 0.197 0.201 0.101-0.317-0.026-0.816-0.038-1.147-0.057-1.615-0.106-3.084 0.621-4.593 0.076-0.158 0.157-0.315 0.241-0.471 0.005-0.003 0.010-0.006 0.014-0.009 0.003 0.002 0.006 0.005 0.009 0.007 0.005-0.009 0.013-0.019 0.021-0.031 0.024-0.023 0.045-0.052 0.065-0.084 0.064-0.082 0.137-0.178 0.138-0.23 0-0-0-0.001-0-0.001 0.45-0.672 0.965-1.307 1.492-1.929-0.004 0.005 0.571-0.712 0.482-0.316-0.043 0.191-0.466 0.554-0.636 0.756-0.378 0.45-0.821 1.020-1.19 1.571-0.050 0.026-0.12 0.154-0.17 0.25-0.028 0.048-0.054 0.097-0.080 0.14 1.306 0.395 2.322-0.401 3.015-1.326 0.001-0.001 0.002-0.002 0.002-0.003 0.211-0.256 0.427-0.509 0.697-0.712 0.45-0.337 0.932-0.397 1.463-0.563 1.447-0.453 2.063-2.169 2.258-3.443 0.221-1.437-0.858-3.64-2.742-3.498z"></path>
<path fill="#e7502f" style="fill: var(--color4, #e7502f)" opacity="0.48999999999999994" d="M36.723 10.585c-1.375 1.309-2.039 3.125-2.565 4.832-0.587 1.907-0.975 3.842-0.99 5.825-0.010 1.302-0.048 2.613 0.035 3.913 0.029 0.462 0.080 0.925 0.16 1.382 0.007 0.038 0.186 1.058 0.357 0.82 0.097-0.135-0.184-1.059-0.205-1.212-0.119-0.866-0.147-1.739-0.141-2.611 0.010-1.436-0.037-2.866 0.122-4.297 0.024-0.214 0.042-0.438 0.098-0.647 0.059-0.222-0.016-0.125 0.176-0.213 0.186-0.086 0.417-0.073 0.61-0.181 0.767-0.426 1.16-1.519 1.465-2.236 0.349-0.82 0.562-1.695 0.731-2.559 0.124-0.634 0.214-1.265 0.264-1.907 0.016-0.203 0.017-0.414 0.060-0.613 0.012-0.054 0.071-0.149 0.068-0.196-0.005-0.101-0.071-0.16-0.076-0.244-0.058 0.047-0.114 0.096-0.169 0.146z"></path>
<path fill="#e7502f" style="fill: var(--color4, #e7502f)" opacity="0.48999999999999994" d="M29.227 28.026c0 2.165 1.918 3.92 4.284 3.92s4.284-1.755 4.284-3.92z"></path>
<path fill="#b45661" style="fill: var(--color3, #b45661)" opacity="0.48999999999999994" d="M36.448 24.594c1.060-0.071 2.244 0.711 2.756 1.526 0.412 0.657 0.343 1.519 0.088 2.217-0.171 0.467-0.543 1.133-1.163 1.139-0.777 0.008-0.814-0.87-0.829-1.383-0.020-0.682-0.114-1.277-0.702-1.742-0.073-0.057-0.149-0.111-0.225-0.165-0.068-0.048-0.135-0.095-0.2-0.146-0.010-0.008-0.021-0.016-0.031-0.024-0.208-0.16-0.426-0.328-0.453-0.591-0.038-0.382 0.197-0.451 0.557-0.38 0.012 0.002 0.043 0.013 0.086 0.028 0.184 0.064 0.576 0.2 0.501 0.037-0.028-0.061-0.13-0.11-0.259-0.146-0.333-0.033-0.73-0.072-0.844-0.049-1.232 0.247-1.712 1.809-1.839 2.801-0.014 0.107-0.025 0.215-0.035 0.322h-0.226c0.016-0.26 0.036-0.519 0.084-0.776 0.182-0.983 0.749-2.426 1.995-2.586 0.046-0.006 0.215-0.007 0.42 0.004 0.097-0.050 0.206-0.080 0.32-0.087z"></path>
<path fill="#b45661" style="fill: var(--color3, #b45661)" opacity="0.25" d="M10.46 9.471c0.247-0.322 0.704-1.139 1.051-1.254 0.224-0.074 0.158 0.692 0.161 0.838 0.011 0.565-0.049 1.127-0.124 1.687-0.134 1.011-0.571 1.911-1.171 2.771-0.309 0.443-0.671 0.891-1.172 1.167-0.231 0.127-0.509 0.148-0.737 0.258-0.266 0.128-0.121 0.024-0.241 0.278-0.166 0.351-0.219 0.805-0.296 1.18-0.353 1.722-1.208 10.823-1.060 12.574 0.013 0.155-0.223 0.192-0.235 0.003-0.063-1.005 0.48-7.963 0.754-10.238s0.551-4.286 0.829-5.073c0.337-0.955 0.947-2.104 1.454-2.994 0.236-0.414 0.492-0.813 0.785-1.196z"></path>
<path fill="#f1f447" style="fill: var(--color2, #f1f447)" opacity="0.25" d="M12.29 20.631c0.642-0.431 1.336 0.382 0.756 0.814-0.321 0.238-0.657 0.154-0.846-0.045-0.123 0.137-0.237 0.28-0.348 0.401-0.336 0.368-0.654 0.745-0.957 1.131-0.631 0.801-1.171 1.648-1.736 2.479-0.558 0.82-1.111 1.645-1.616 2.486-0.428 0.713-0.999 1.551-1.146 2.332 0.222-1.657 1.066-3.249 2.072-4.71 0.997-1.449 2.141-3.031 3.685-4.174-0.157-0.211-0.161-0.513 0.137-0.713z"></path>
<path fill="#b45661" style="fill: var(--color3, #b45661)" opacity="0.25" d="M0.112 16.591c0.359 0.064 0.946 0.807 1.242 1.091 0.352 0.337 0.671 0.695 0.972 1.071 0.648 0.809 1.227 1.669 1.72 2.566 0.803 1.462 1.446 2.963 1.913 4.556 0.286 0.975 0.471 1.985 0.58 2.988 0.021 0.189 0.237 1.648-0.075 1.687-0.281 0.035-0.194-1.108-0.208-1.263-0.153-1.754-0.612-3.461-1.251-5.114-0.139-0.36-0.268-0.801-0.491-1.125-0.16-0.233-0.001-0.152-0.283-0.24-0.242-0.076-0.517-0.057-0.764-0.15-0.538-0.202-0.968-0.593-1.345-0.987-0.733-0.766-1.314-1.594-1.617-2.575-0.168-0.544-0.322-1.091-0.408-1.652-0.022-0.145-0.216-0.894 0.015-0.852z"></path>
<path fill="#e7502f" style="fill: var(--color4, #e7502f)" opacity="0.25" d="M1.53 4.223c1.353 2.146 2.464 4.504 3.182 6.893 0.435 1.447 0.739 2.932 1.041 4.406 0.468 2.282 0.91 4.565 1.036 6.888 0.127 2.336 0.377 5.031-0.459 7.282 0.418-2.285 0.020-4.717-0.050-7.016-0.034-1.098-0.131-2.184-0.259-3.275-0.124-1.058-0.327-2.112-0.516-3.162-0.092-0.511-0.189-1.022-0.287-1.532-0.029-0.152-0.042-0.604-0.147-0.708s-0.648-0.147-0.819-0.224c-0.343-0.155-0.665-0.374-0.95-0.607-0.547-0.445-1.023-1.027-1.398-1.6-0.869-1.327-1.216-2.946-1.199-4.483 0.003-0.298 0.528-3.511 0.317-3.555 0.013-0.014 0.025-0.028 0.036-0.042 0.159 0.244 0.316 0.49 0.471 0.737z"></path>
<path fill="#e7502f" style="fill: var(--color4, #e7502f)" opacity="0.25" d="M16.13 11.965c0.021-0.028 0.157-0.219 0.088-0.207 0.139-0.025-0.192 0.211 0.155 0.066-0.165 0.142-0.070 0.327-0.067 0.519 0.004 0.311-0.053 0.62-0.117 0.924-0.101 0.481-0.252 0.949-0.471 1.397-0.477 0.976-1.287 1.915-2.248 2.524-0.475 0.301-0.94 0.404-1.481 0.542-0.342 0.088-0.369 0.249-0.551 0.553-0.378 0.632-0.749 1.262-1.082 1.916-0.398 0.78-0.784 1.562-1.149 2.356-1.228 2.675-2.227 5.447-2.751 8.316-0.013-1.69 0.415-3.432 0.954-5.043 0.393-1.174 0.904-2.306 1.449-3.426 0.132-0.272 0.332-0.62 0.389-0.92 0.039-0.21-0.081-0.412-0.136-0.633-0.214-0.861-0.199-1.826-0.011-2.692 0.208-0.955 0.808-1.398 1.824-1.533 0.371-0.049 0.844-0.031 1.184-0.176 0.371-0.158 0.524-0.676 0.735-1.009 0.567-0.894 1.24-1.752 2.013-2.506 0.214-0.209 0.444-0.401 0.689-0.58 0.154-0.113 0.48-0.251 0.584-0.39z"></path>
<path fill="#f1f447" style="fill: var(--color2, #f1f447)" opacity="0.25" d="M4.451 29.354c-0.026-0.162 0.111-0.308 0.29-0.308h3.605c0.179 0 0.316 0.146 0.29 0.308l-0.279 1.728c-0.085 0.527-0.579 0.917-1.161 0.917h-1.305c-0.582 0-1.076-0.39-1.161-0.917l-0.279-1.728z"></path>
<path fill="#f58b3d" style="fill: var(--color1, #f58b3d)" d="M1.492 29.93c0 1.143 0.099 2.070 1.422 2.070s1.422-0.927 1.422-2.070z"></path>
<path fill="#f58b3d" style="fill: var(--color1, #f58b3d)" d="M3.307 29.217c-0.049 0.077-0.092 0.155-0.13 0.234-0.001-0.164 0.009-0.328 0.036-0.496 0.046-0.286 0.117-0.571 0.183-0.855 0.048-0.204 0.045-0.571 0.225-0.734 0.050-0.035 0.061 0.034 0.061 0.064 0.001 0.006-0-0.122-0.048-0.1-0.286 0.135-0.378 0.56-0.47 0.772-0.134 0.31-0.247 0.628-0.294 0.951-0.012 0.082-0.018 0.163-0.020 0.244-0.010-0.022-0.019-0.044-0.029-0.065-0.165-0.354-0.388-0.699-0.665-1.018-0.068-0.078-0.928-0.852-0.995-0.734 0.007 0.017 0.021 0.032 0.042 0.043 0.001 0.001 0.001 0 0.001-0.001 0.050 0.075 0.194 0.19 0.239 0.255 0.113 0.164 0.2 0.339 0.289 0.51 0.188 0.362 0.362 0.727 0.531 1.094 0.039 0.085 0.080 0.17 0.122 0.255-0.431-0.569-1.006-1.085-1.797-1.38 0.27 0.126 0.447 0.362 0.63 0.544 0.22 0.219 0.452 0.431 0.673 0.649 0.26 0.258 0.566 0.529 0.816 0.814 0.242 0.466 0.478 0.932 0.623 1.421-0.060-0.169-0.005-0.403-0.015-0.58-0.008-0.141-0.026-0.281-0.051-0.421 0.031 0.063 0.057 0.126 0.069 0.185-0.011-0.099-0.023-0.196-0.037-0.294 0.035-0.091 0.069-0.176 0.092-0.246 0.118-0.359 0.258-0.712 0.449-1.057 0.177-0.318 0.379-0.633 0.6-0.938 0.103-0.142 0.207-0.284 0.311-0.425 0.068-0.093 0.132-0.241 0.227-0.33-0.611 0.511-1.278 1.026-1.666 1.639z"></path>
<path fill="#f58b3d" style="fill: var(--color1, #f58b3d)" d="M40.356 5.894c-0.175-0.534-0.586-0.953-1.013-1.336-0.831-0.746-1.277-1.207-1.574-2.299-0.174-0.642-0.351-1.322-0.904-1.788-0.402-0.339-1.094-0.624-1.632-0.381-0.827 0.452-1.050 1.379-0.966 2.209 0.103 1.029 0.629 1.664 1.638 2.043 0.569 0.213 0.947 0.495 1.255 0.986 0.247 0.392 0.391 0.884 0.701 1.24 0.464 0.532 1.044 0.768 1.76 0.68-0.67-1.128-1.453-2.267-2.398-3.217-0.088-0.095-0.61-0.461-0.505-0.624 0.116-0.179 0.651 0.494 0.647 0.49 0.274 0.288 0.528 0.595 0.778 0.904-0.001 0-0.001 0-0.002 0.001 0.257 0.317 0.512 0.639 0.761 0.965 0.101 0.138 0.199 0.278 0.294 0.421 0.138 0.21 0.358 0.806 0.584 0.936 0.048 0.028 0.093 0.043 0.135 0.049 0.154 0.231 0.304 0.464 0.447 0.7 0.373 0.616 0.693 1.266 0.84 1.961 0.043 0.203 0.013 0.962 0.164 1.108 0.277 0.268 0.196-0.248 0.179-0.404-0.138-1.289-0.644-2.388-1.378-3.472 0.226-0.27 0.258-0.956 0.187-1.173z"></path>
<path fill="#f58b3d" style="fill: var(--color1, #f58b3d)" d="M30.878 6.517c0.292-0.315 0.993-0.368 1.422-0.347 0.531 0.026 1.076 0.144 1.581 0.287 0.832 0.235 1.64 0.665 2.373 1.081 0.088 0.050 1.176 0.649 1.080 0.754s-1.163-0.607-1.401-0.729c-0.508-0.261-0.973-0.571-1.533-0.744-0.58-0.179-1.192-0.25-1.802-0.245-0.078 0.001-0.333-0.049-0.339 0.057-0.005 0.104 0.417 0.050 0.491 0.050 0.307 0.003 0.617 0.029 0.92 0.078 0.568 0.091 1.102 0.275 1.588 0.558-0.136 0.289-0.461 0.422-0.802 0.35-0.295-0.062-0.583-0.216-0.871-0.261-0.199-0.031-0.398-0.012-0.591 0.039-0.509 0.135-0.802 0.412-1.362 0.22-0.439-0.151-1.172-0.694-0.753-1.146z"></path>
<path fill="#f58b3d" style="fill: var(--color1, #f58b3d)" d="M29.623 1.449c-0.648-0.043-1.371 0.43-1.684 0.922-0.252 0.397-0.21 0.918-0.054 1.34 0.104 0.282 0.332 0.685 0.711 0.689 0.474 0.005 0.497-0.526 0.506-0.836 0.012-0.413 0.070-0.772 0.429-1.053 0.044-0.035 0.091-0.067 0.137-0.1 0.041-0.029 0.083-0.058 0.122-0.088 0.006-0.005 0.013-0.010 0.019-0.015 0.127-0.097 0.26-0.198 0.277-0.357 0.023-0.231-0.12-0.272-0.34-0.229-0.007 0.001-0.026 0.008-0.053 0.017-0.112 0.038-0.352 0.121-0.306 0.022 0.017-0.037 0.079-0.066 0.158-0.088 0.204-0.020 0.446-0.043 0.516-0.029 0.753 0.149 1.046 1.093 1.124 1.693 0.009 0.068 0.016 0.136 0.022 0.204h0.138c-0.010-0.16-0.022-0.32-0.052-0.479-0.111-0.594-0.458-1.466-1.219-1.563-0.028-0.004-0.131-0.004-0.256 0.002-0.059-0.030-0.126-0.048-0.196-0.052z"></path>
</symbol>
<symbol id="icon-burger" viewBox="0 0 32 32">
<path d="M4 5.333h24v2.667h-24v-2.667zM12 14.667h16v2.667h-16v-2.667zM4 24h24v2.667h-24v-2.667z"></path>
</symbol>
</defs>
</svg>
